<svg width="16" height="16" viewBox="0 0 16 16" fill="none" xmlns="http://www.w3.org/2000/svg">
<path d="M15.1707 7.05395L14.1507 5.86895C13.9557 5.64395 13.7982 5.22395 13.7982 4.92395V3.64895C13.7982 2.85395 13.1457 2.20145 12.3507 2.20145H11.0757C10.7832 2.20145 10.3557 2.04395 10.1307 1.84895L8.94567 0.828945C8.42817 0.386445 7.58067 0.386445 7.05568 0.828945L5.87815 1.85645C5.65315 2.04395 5.22565 2.20145 4.93315 2.20145H3.63564C2.84064 2.20145 2.18814 2.85395 2.18814 3.64895V4.93145C2.18814 5.22395 2.03064 5.64395 1.84314 5.86895L0.830645 7.06145C0.395645 7.57895 0.395645 8.41895 0.830645 8.93645L1.84314 10.129C2.03064 10.354 2.18814 10.774 2.18814 11.0665V12.349C2.18814 13.144 2.84064 13.7965 3.63564 13.7965H4.93315C5.22565 13.7965 5.65315 13.954 5.87815 14.149L7.06318 15.169C7.58068 15.6115 8.42817 15.6115 8.95317 15.169L10.1382 14.149C10.3632 13.954 10.7832 13.7965 11.0832 13.7965H12.3582C13.1532 13.7965 13.8057 13.144 13.8057 12.349V11.074C13.8057 10.7815 13.9632 10.354 14.1582 10.129L15.1782 8.94395C15.6132 8.42645 15.6132 7.57145 15.1707 7.05395ZM11.1207 6.58145L7.49818 10.204C7.39318 10.309 7.25068 10.369 7.10068 10.369C6.95068 10.369 6.80817 10.309 6.70317 10.204L4.88814 8.38895C4.67065 8.17145 4.67065 7.81145 4.88814 7.59395C5.10565 7.37645 5.46565 7.37645 5.68315 7.59395L7.10068 9.01145L10.3257 5.78645C10.5432 5.56894 10.9032 5.56894 11.1207 5.78645C11.3382 6.00395 11.3382 6.36395 11.1207 6.58145Z" fill="#FF6666"/>
</svg>
