<svg width="15" height="12" viewBox="0 0 15 12" fill="none" xmlns="http://www.w3.org/2000/svg">
<g clip-path="url(#clip0_61_8)">
<path d="M9.99585 6.83212C8.49249 6.99643 -0.443783 8.25284 0.0173499 5.58822C0.273573 4.10678 3.49457 4.43995 4.516 4.31777C6.01659 4.13828 7.63333 4.21227 9.10757 3.88024C8.59096 2.92626 6.51551 2.31759 6.35914 1.29493C6.11193 -0.320843 8.39056 0.977315 8.89572 1.27216C10.199 2.03223 11.4684 2.84733 12.7706 3.6112C13.721 4.16863 15.2112 4.84143 14.9751 6.30845C14.7604 7.64304 12.9117 8.50139 11.9829 9.15977C10.8408 9.96955 9.47682 10.919 8.16554 11.3679C6.66356 11.8821 6.01416 10.807 7.10909 9.62158C8.06672 8.58488 9.4151 8.03009 10.3665 6.98884C10.1273 6.85754 9.80863 6.91408 9.54755 6.91408C9.5368 6.79872 10.4677 6.86551 10.4882 6.82415C10.5017 6.79683 9.732 6.85413 9.99585 6.83212C10.4622 6.79379 8.9505 6.94634 9.99585 6.83212Z" fill="white"/>
</g>
<defs>
<clipPath id="clip0_61_8">
<rect width="11" height="15" fill="white" transform="translate(0 11.5) rotate(-90)"/>
</clipPath>
</defs>
</svg>
