<svg width="15" height="12" viewBox="0 0 15 12" fill="none" xmlns="http://www.w3.org/2000/svg">
<g clip-path="url(#clip0_78_187)">
<path d="M9.99588 6.83212C8.49252 6.99643 -0.443753 8.25284 0.0173804 5.58822C0.273604 4.10678 3.4946 4.43995 4.51603 4.31777C6.01662 4.13828 7.63336 4.21227 9.1076 3.88024C8.59099 2.92626 6.51554 2.31759 6.35917 1.29493C6.11196 -0.320843 8.39059 0.977315 8.89575 1.27216C10.1991 2.03223 11.4684 2.84733 12.7707 3.6112C13.721 4.16863 15.2112 4.84143 14.9751 6.30845C14.7605 7.64304 12.9118 8.50139 11.9829 9.15977C10.8408 9.96955 9.47685 10.919 8.16557 11.3679C6.66359 11.8821 6.01419 10.807 7.10912 9.62158C8.06675 8.58488 9.41513 8.03009 10.3665 6.98884C10.1273 6.85754 9.80866 6.91408 9.54758 6.91408C9.53683 6.79872 10.4678 6.86551 10.4882 6.82415C10.5017 6.79683 9.73203 6.85413 9.99588 6.83212C10.4622 6.79379 8.95053 6.94634 9.99588 6.83212Z" fill="#FF6666"/>
</g>
<defs>
<clipPath id="clip0_78_187">
<rect width="11" height="15" fill="white" transform="translate(0 11.5) rotate(-90)"/>
</clipPath>
</defs>
</svg>
