<svg width="20" height="15" viewBox="0 0 20 15" fill="none" xmlns="http://www.w3.org/2000/svg">
<g clip-path="url(#clip0_430_3310)">
<path d="M13.3276 8.63479C11.3232 8.85885 -0.591874 10.5721 0.0229704 6.93857C0.364602 4.91843 4.65926 5.37275 6.02117 5.20613C8.02195 4.96138 10.1776 5.06228 12.1433 4.60951C11.4544 3.30862 8.68719 2.47862 8.47869 1.08408C8.14908 -1.11924 11.1872 0.650973 11.8608 1.05304C13.5985 2.0895 15.291 3.20099 17.0273 4.24263C18.2945 5.00277 20.2814 5.92022 19.9666 7.9207C19.6804 9.74059 17.2155 10.9111 15.977 11.8089C14.4542 12.9131 12.6356 14.2078 10.8872 14.8199C8.88459 15.5211 8.01872 14.0551 9.47863 12.4386C10.7555 11.0249 12.5533 10.2684 13.8218 8.8485C13.5028 8.66946 13.078 8.74656 12.7299 8.74656C12.7156 8.58926 13.9568 8.68033 13.9841 8.62393C14.0021 8.58667 12.9758 8.6648 13.3276 8.63479C13.9494 8.58253 11.9338 8.79055 13.3276 8.63479Z" fill="#2C4073"/>
</g>
<defs>
<clipPath id="clip0_430_3310">
<rect width="15" height="20" fill="white" transform="translate(0 15) rotate(-90)"/>
</clipPath>
</defs>
</svg>
