<svg width="15" height="11" viewBox="0 0 15 11" fill="none" xmlns="http://www.w3.org/2000/svg">
<g clip-path="url(#clip0_430_32)">
<path d="M9.99573 6.33212C8.49237 6.49643 -0.443905 7.75284 0.0172278 5.08822C0.273451 3.60678 3.49445 3.93995 4.51588 3.81777C6.01647 3.63828 7.6332 3.71227 9.10744 3.38024C8.59084 2.42626 6.51539 1.81759 6.35902 0.794929C6.11181 -0.820843 8.39043 0.477315 8.8956 0.772161C10.1989 1.53223 11.4682 2.34733 12.7705 3.1112C13.7209 3.66863 15.211 4.34143 14.9749 5.80845C14.7603 7.14304 12.9116 8.00139 11.9828 8.65977C10.8407 9.46955 9.4767 10.419 8.16542 10.8679C6.66344 11.3821 6.01404 10.307 7.10897 9.12158C8.0666 8.08488 9.41498 7.53009 10.3664 6.48884C10.1271 6.35754 9.8085 6.41408 9.54743 6.41408C9.53668 6.29872 10.4676 6.36551 10.4881 6.32415C10.5016 6.29683 9.73188 6.35413 9.99573 6.33212C10.4621 6.29379 8.95038 6.44634 9.99573 6.33212Z" fill="#999999"/>
</g>
<defs>
<clipPath id="clip0_430_32">
<rect width="11" height="15" fill="white" transform="translate(0 11) rotate(-90)"/>
</clipPath>
</defs>
</svg>
