<svg width="150" height="80" viewBox="0 0 150 80" fill="none" xmlns="http://www.w3.org/2000/svg">
<path d="M145.264 37.3159L145.263 37.3134C144.564 36.3055 143.73 35.333 142.787 34.3968L143.315 33.8645C141.524 32.0858 139.375 30.4587 137.075 28.9832L136.67 29.6146C135.576 28.9134 134.446 28.2458 133.301 27.6119C132.502 27.173 131.7 26.739 130.894 26.3101L131.247 25.648C129.633 24.7891 128.005 23.9503 126.36 23.1331L126.026 23.8049C124.397 22.996 122.752 22.2087 121.088 21.4442L121.401 20.7627C119.744 20.0018 118.068 19.2635 116.37 18.5491L116.079 19.2404C114.409 18.5378 112.718 17.8585 111.002 17.2039L111.269 16.5032C109.571 15.8552 107.849 15.2314 106.102 14.633L105.859 15.3425C105 15.0486 104.135 14.7609 103.264 14.4794C102.253 14.1567 101.239 13.8388 100.222 13.5259L100.443 12.8091C98.4101 12.1834 96.3667 11.5778 94.3117 10.9938L94.1067 11.7153C92.067 11.1357 90.0161 10.5776 87.9533 10.0427L88.1416 9.31667C86.0843 8.78318 84.015 8.27266 81.9332 7.78678L81.7627 8.51716C79.6999 8.03574 77.6248 7.57862 75.5367 7.14743L75.6884 6.41292C73.6088 5.98349 71.5162 5.57966 69.41 5.20307L69.278 5.94137C68.2343 5.75476 67.1873 5.57487 66.1369 5.40189L66.1361 5.40175C65.0412 5.22015 63.9441 5.04398 62.8452 4.87299L62.9605 4.13191C60.7636 3.79007 58.5592 3.46893 56.3493 3.16657L56.2476 3.90965C54.048 3.6087 51.8425 3.32635 49.6329 3.06069L49.7224 2.31605C47.5126 2.05038 45.299 1.80141 43.0832 1.56723L43.0043 2.31307C40.7931 2.07938 38.5794 1.86041 36.365 1.65427L36.4345 0.907503C34.2158 0.70097 31.9966 0.507325 29.7786 0.324662L29.717 1.07213C28.6079 0.980788 27.499 0.892188 26.3905 0.806095L26.3889 0.805968C25.6621 0.747915 24.9341 0.735987 24.2089 0.765712L24.1782 0.0163414C22.6533 0.0788469 21.1463 0.318277 19.6934 0.693396L19.8808 1.41958C18.4357 1.79269 17.0436 2.30506 15.7436 2.91376L15.4255 2.23452C13.9943 2.90466 12.673 3.68728 11.5095 4.52783L11.9487 5.13577C11.3316 5.58159 10.7626 6.04268 10.2491 6.50977L10.2258 6.53097L10.2008 6.55014C9.8405 6.82645 9.50411 7.11577 9.19149 7.41606L8.67194 6.87517C7.96572 7.55353 7.3702 8.28755 6.88536 9.05774L7.52007 9.45729C7.28254 9.83464 7.07392 10.2207 6.89402 10.6126L6.84214 10.7257L6.75655 10.8159C6.73287 10.8409 6.7057 10.8717 6.67336 10.9101L6.09962 10.4271C6.06361 10.4699 6.0276 10.5142 5.99158 10.5584C5.95557 10.6027 5.91956 10.647 5.88354 10.6898L6.45729 11.1728C6.42367 11.2128 6.38688 11.2553 6.34771 11.2981C5.9703 11.8049 5.60514 12.3036 5.26002 12.8019L4.64346 12.3749C3.89011 13.4626 3.22262 14.5591 2.7431 15.7102L3.43543 15.9986C3.20435 16.5533 3.02249 17.1152 2.90006 17.691C2.84475 17.9742 2.78957 18.2562 2.73452 18.5376C2.662 18.9082 2.5897 19.2777 2.51761 19.6474L1.78147 19.5039C1.52567 20.8159 1.27446 22.1214 1.03711 23.4335L1.77514 23.567C1.65722 24.2188 1.54285 24.8716 1.43311 25.5272L1.43263 25.5301C1.25234 26.5819 1.11676 27.6389 1.016 28.7007L0.269353 28.6298C0.0644105 30.7895 0.00231091 32.959 6.38302e-05 35.1316L0.750063 35.1324C0.748949 36.2102 0.762652 37.2902 0.780999 38.3735L145.264 37.3159ZM145.264 37.3159C145.728 37.9794 146.151 38.6449 146.532 39.3123L147.183 38.94M145.264 37.3159L147.183 38.94M147.183 38.94C148.022 40.406 148.673 41.8877 149.137 43.385L148.421 43.6071C148.891 45.123 149.16 46.6526 149.231 48.1975L149.98 48.1632C150.053 49.7586 149.923 51.371 149.589 53.0004L148.854 52.8499C148.701 53.6005 148.502 54.3563 148.257 55.1174C147.823 56.4046 147.213 57.6822 146.456 58.9356L147.098 59.3235C145.655 61.7113 143.71 63.9846 141.468 66.0493L140.96 65.4976C139.911 66.4642 138.794 67.3853 137.631 68.2505L137.629 68.2525C136.936 68.7723 136.218 69.2673 135.477 69.7394L135.879 70.3722C134.399 71.3143 132.83 72.1644 131.189 72.9376L130.869 72.2592C129.307 72.9957 127.676 73.6627 125.991 74.2735L126.246 74.9786C124.593 75.578 122.892 76.1224 121.157 76.6244L120.949 75.904C120.103 76.1487 119.249 76.3835 118.388 76.6096L118.387 76.61C117.595 76.8194 116.791 77.0098 115.975 77.1832L116.131 77.9168C114.511 78.2612 112.853 78.5384 111.173 78.7651L111.072 78.0219C109.436 78.2427 107.776 78.4154 106.107 78.5555L106.17 79.3028C104.497 79.4433 102.818 79.5508 101.15 79.641L101.109 78.8921C100.271 78.9374 99.4345 78.9783 98.6021 79.0169C97.2103 79.0813 95.818 79.1296 94.4251 79.165L94.4442 79.9147C91.6475 79.9859 88.8509 80.0053 86.0543 79.9988L86.056 79.2488C84.6598 79.2456 83.2633 79.2359 81.866 79.223L81.8648 79.223C80.7493 79.2144 79.6353 79.2009 78.5226 79.1824L78.5102 79.9323C76.2736 79.8953 74.0423 79.8385 71.8146 79.7627L71.8401 79.0131C69.6108 78.9373 67.3849 78.8424 65.1609 78.7291L65.1228 79.4781C62.8927 79.3646 60.6646 79.2326 58.4366 79.0829L58.4869 78.3346C56.2649 78.1853 54.0429 78.0184 51.8193 77.8346L51.7575 78.582C49.536 78.3984 47.313 78.1979 45.0867 77.9813L45.1593 77.2348C44.0512 77.127 42.9423 77.0152 41.8323 76.8994L41.8284 76.899L41.5993 76.8763C40.3731 76.755 39.1455 76.6334 37.918 76.5056L37.8403 77.2515C35.2253 76.9792 32.6104 76.6779 30.0319 76.2901L30.1434 75.5484C28.8493 75.3538 27.5664 75.1375 26.2988 74.8922C25.4237 74.7181 24.5652 74.5269 23.7243 74.3182L23.5436 75.0461C21.7626 74.604 20.0563 74.0832 18.4334 73.4776L18.6956 72.7749C17.0087 72.1454 15.4182 71.4241 13.9331 70.6048L13.5708 71.2615C11.9762 70.3818 10.4961 69.3893 9.14248 68.2756L9.61901 67.6964C8.94722 67.1437 8.30819 66.5607 7.70329 65.9466L7.70296 65.9462C6.70108 64.9303 5.91135 63.8532 5.27726 62.7328L4.62455 63.1022C3.18759 60.5633 2.51776 57.819 2.03363 55.0837L2.77215 54.9529C2.62727 54.1343 2.5019 53.3343 2.37622 52.5323C2.28526 51.9518 2.19413 51.3702 2.09536 50.7799L2.09402 50.7724C1.91143 49.7456 1.74266 48.7164 1.59108 47.6856L0.849056 47.7947C0.543249 45.7151 0.306375 43.6258 0.16599 41.5333L0.914308 41.4831C0.844752 40.4463 0.799204 39.4096 0.781001 38.3736L147.183 38.94Z" fill="white" stroke="#FF6666" stroke-width="1.5" stroke-dasharray="6 6"/>
</svg>
