<svg width="150" height="80" viewBox="0 0 150 80" fill="none" xmlns="http://www.w3.org/2000/svg">
<path d="M145.469 37.1727L145.468 37.171C142.812 33.3368 138.26 30.0721 133.423 27.3934C124.027 22.2334 114.196 17.7473 103.341 14.2416C91.3656 10.4201 79.0271 7.2713 66.1775 5.15521L66.177 5.15512C53.098 2.9859 39.7209 1.59071 26.4099 0.556846L26.4088 0.556761C20.0968 0.0525824 13.7524 2.98503 10.0809 6.32484L10.0654 6.33897L10.0487 6.35175C8.49183 7.54559 7.36733 8.98191 6.66681 10.5084L6.63222 10.5837L6.57516 10.6439C6.51715 10.7051 6.45591 10.7799 6.37952 10.8739L6.37397 10.8807C6.30999 10.9594 6.23416 11.0527 6.15501 11.1382C4.53929 13.3075 3.14365 15.3403 2.65509 17.6411C2.59976 17.9244 2.54446 18.207 2.48927 18.489C2.03033 20.8344 1.57923 23.1397 1.18654 25.486L1.18622 25.4879C0.459059 29.7303 0.457456 34.0333 0.531035 38.3778L145.469 37.1727ZM145.469 37.1727C149.507 42.9501 150.502 48.9427 148.495 55.195C146.847 60.0778 142.74 64.7597 137.78 68.4511L137.779 68.4524C132.484 72.4289 125.715 74.9434 118.452 76.8514L118.451 76.8517C112.253 78.4917 105.311 78.9562 98.6137 79.2666C93.0355 79.5246 87.4542 79.5247 81.8637 79.473L81.8629 79.473C68.4147 79.3697 55.1854 78.5432 41.8064 77.148L41.8038 77.1478L41.5833 77.126C36.4261 76.6155 31.2292 76.1011 26.2497 75.1373C18.5088 73.5971 12.0664 70.7328 7.52517 66.122L7.52495 66.1218C3.64246 62.1848 2.88112 57.3459 2.12754 52.5563C2.03633 51.9766 1.94524 51.3977 1.84877 50.8212L1.84788 50.8162M145.469 37.1727L1.84788 50.8162M145.879 36.8863C143.156 32.9552 138.521 29.6449 133.664 26.9552C124.245 21.7827 114.384 17.2827 103.493 13.7654C91.4989 9.93776 79.1364 6.78257 66.2588 4.66186C53.1604 2.48942 39.7677 1.09284 26.4486 0.0583471C19.973 -0.4589 13.4974 2.54114 9.74446 5.95497C8.12557 7.19636 6.94824 8.69636 6.21238 10.2998L145.879 36.8863ZM145.879 36.8863C150 42.7829 151.03 48.9382 148.97 55.352M145.879 36.8863L148.97 55.352M1.84788 50.8162C1.11503 46.6951 0.60404 42.5331 0.531037 38.3779L1.84788 50.8162ZM148.97 55.352C147.277 60.3693 143.083 65.128 138.079 68.8522C132.707 72.8867 125.864 75.4212 118.579 77.335C112.324 78.9902 105.333 79.4557 98.6368 79.7661L148.97 55.352Z" fill="white" stroke="#EEEEEE"/>
</svg>
