<svg width="101" height="100" viewBox="0 0 101 100" fill="none" xmlns="http://www.w3.org/2000/svg">
<path d="M76.4597 16.8083C76.4649 16.8308 76.4628 16.8481 76.468 16.8695C76.4576 16.8583 76.4462 16.8481 76.4358 16.8379L76.4597 16.8083Z" fill="#FF6666"/>
<path d="M75.1407 5.24809C75.1092 5.22057 75.0735 5.19814 75.0409 5.17062C75.0829 5.18897 75.1302 5.19509 75.1702 5.22057L75.1407 5.24809Z" fill="#FF6666"/>
<path d="M72.586 12.4949C72.5587 12.4552 72.5198 12.4266 72.4914 12.3879C72.5334 12.4134 72.5744 12.4409 72.6165 12.4664L72.586 12.4949Z" fill="#FF6666"/>
<path d="M0.06707 45.6651C0.357132 44.1067 0.520027 42.53 0.687126 40.9512C0.986649 38.1115 2.30664 35.543 3.44377 32.9654C4.04176 31.6098 4.93822 30.351 5.60452 28.9903C6.01649 28.1505 6.38748 27.17 7.47732 26.8122C7.73375 26.7276 7.89034 26.4483 7.95655 26.1894C8.13416 25.4933 8.7395 25.1498 9.24397 24.7523C9.47307 24.5719 9.57712 24.4262 9.67801 24.1642C10.0006 23.3223 9.97753 22.3897 10.5492 21.6049C11.7873 19.9058 13.1714 18.3657 14.7352 16.9215C18.5333 13.4163 22.9074 10.7754 27.5368 8.49539C32.4836 6.05838 37.5912 3.99033 42.8964 2.38706C49.1212 0.50554 55.4038 -0.589127 61.9754 0.334307C65.1366 0.778697 68.1529 1.55434 71.0482 2.79782C72.4775 3.4114 73.848 4.16055 75.0397 5.17164C74.2053 4.81184 72.8317 5.7098 72.5007 4.15035C72.4954 4.12385 72.3325 4.11162 72.2474 4.1208C71.044 4.24922 70.0582 3.61831 69.0041 3.23711C68.7425 3.14232 68.506 2.99147 68.2338 3.15251C67.702 3.46848 67.1807 3.32579 66.6542 3.1464C65.0809 2.61232 63.4162 3.12601 61.8188 2.75909C61.4615 2.67653 61.0232 2.90178 60.627 3.00472C60.3527 3.07607 60.0795 3.2208 60.0532 3.51027C60.0154 3.92714 60.4105 3.92714 60.6974 4.04741C62.318 4.72725 64.0521 5.22158 65.2281 6.63935C65.3647 6.80446 65.5844 6.91862 65.7851 7.01952C67.7441 8.01431 69.2448 9.58394 70.9452 10.9008C71.5065 11.336 72.0624 11.8059 72.4901 12.3879C70.1728 11.016 68.2821 9.03966 65.7262 7.98475C64.731 7.57399 63.8787 6.84116 62.7647 6.6475C62.4504 6.59246 62.1036 6.50481 61.9176 6.24388C61.4562 5.59768 60.8446 5.6517 60.2171 5.87186C59.8661 5.99518 59.5309 6.05226 59.4384 5.6568C59.266 4.91988 58.8026 5.03608 58.2876 5.19304C57.8399 5.3286 57.3859 5.31841 56.9277 5.25725C56.4274 5.191 55.8998 5.10029 55.4353 5.30516C54.872 5.55487 54.3886 5.37243 53.8463 5.26235C52.9551 5.08092 52.0765 4.55092 51.1926 4.71705C50.3246 4.88013 49.468 4.86179 48.6294 4.83223C47.5973 4.79655 46.6473 4.92498 45.6867 5.26541C44.7451 5.59972 43.7845 5.92078 42.7441 5.75872C42.3699 5.70062 42.0347 5.80866 41.691 5.9697C40.4635 6.54558 39.1561 6.95429 37.9759 7.63311C37.6165 7.84001 37.2182 7.92767 36.7894 7.90015C35.6985 7.82982 34.8598 8.47602 34.1252 9.05699C32.6917 10.1894 31.4295 11.5215 29.6629 12.2146C29.2488 12.3767 28.82 12.5448 28.5047 12.9067C28.2672 13.1788 27.975 13.3929 28.015 13.8056C28.1243 14.9278 27.3182 15.3253 26.4417 15.677C25.9362 15.8788 25.4002 16.051 24.9567 16.3487C24.2011 16.8562 23.4696 17.3546 22.5574 17.5972C22.0971 17.7195 21.7019 18.0121 21.3824 18.4514C20.7203 19.3626 19.6347 19.9252 18.6867 20.3614C17.6442 20.8405 17.4582 21.7975 16.6689 22.3245C17.928 22.1369 17.9269 22.1359 19.0104 21.0249C19.1355 20.8965 19.2658 20.761 19.4214 20.6764C19.867 20.4317 20.3557 20.3339 20.8664 20.3023C21.6115 20.2575 22.3115 20.1015 22.8506 19.5256C23.2805 19.068 23.8942 18.9956 24.4817 18.9182C24.839 18.8713 25.1995 18.9324 25.5263 18.6878C26.118 18.2455 26.8537 18.0844 27.5473 17.8999C28.3439 17.6879 28.8925 17.3434 29.3423 16.6249C30.1768 15.2907 31.3833 14.4794 33.1195 14.8412C33.4463 14.9095 33.7731 14.8942 34.058 14.7413C35.3664 14.035 36.7179 13.3032 37.8088 12.3736C38.7431 11.5776 39.5534 11.7244 40.392 11.9649C41.3621 12.2442 42.2648 12.3522 43.0888 11.7977C43.6615 11.4114 44.208 11.4379 44.7808 11.5827C45.8843 11.8619 46.9605 11.7733 48.0324 11.4726C49.6267 11.0262 51.2736 10.8937 52.9088 10.702C53.3587 10.649 53.9051 10.5441 54.2236 10.8947C54.7354 11.4583 55.1442 11.5592 55.6508 10.9314C55.779 10.7724 56.0333 10.7958 56.1405 10.9385C56.583 11.5307 56.996 11.2025 57.4248 10.9406C57.7884 10.7184 58.1709 10.6664 58.6071 10.7367C59.2829 10.8447 59.9712 10.8814 60.6533 10.9599C61.2092 11.0241 61.8083 11.1454 62.1299 11.5837C62.7037 12.3634 63.5424 12.661 64.3768 13.0168C65.6264 13.5498 66.9422 13.9331 68.1266 14.6129C68.5974 14.883 69.0672 15.2051 69.5822 15.3437C71.5664 15.8788 73.622 16.2049 75.3687 17.3771C75.5127 17.4739 75.705 17.5289 75.8816 17.5493C76.4627 17.6176 76.5615 17.3098 76.469 16.8695C76.8695 17.2782 77.3613 17.637 77.6345 18.114C78.6624 19.9048 80.4374 20.9587 81.894 22.3255C83.1394 23.4946 84.5298 24.5434 85.4473 25.9999C86.3364 27.4125 86.9954 28.9801 88.5581 29.8903C89.0247 30.1625 89.0647 30.7047 89.2528 31.1521C89.3747 31.4426 89.3211 31.9013 89.8581 31.9043C90.0862 31.4263 90.083 30.9238 89.9843 30.454C89.3526 27.4431 88.6128 24.4669 86.719 21.9086C86.6401 21.8026 86.5582 21.6875 86.5235 21.5641C86.4751 21.3898 86.4835 21.2033 86.659 21.0841C86.8304 20.9668 87.0416 20.9852 87.1614 21.1146C87.6175 21.6059 88.1031 22.0809 88.2617 22.7668C88.4131 23.4191 88.7221 24.0103 89.0048 24.6198C89.6206 25.9489 90.4278 27.2403 90.6548 28.6835C90.8187 29.7293 91.3515 30.5712 91.671 31.5874C91.9811 31.248 91.9958 30.9116 91.8865 30.6517C91.4503 29.6172 91.5449 28.4664 91.0993 27.436C90.9774 27.1547 90.7893 26.7541 90.9017 26.5492C91.3589 25.7196 90.7336 25.267 90.3248 24.7584C89.8939 24.2233 89.6774 23.5975 89.3589 23.0176C88.9575 22.2868 89.4241 21.2614 88.4667 20.7345C88.3174 20.6519 88.4131 20.3064 88.6348 20.1647C88.7998 20.0587 89.0268 20.0495 89.1414 20.1892C89.5408 20.6723 90.1356 21.2023 90.0231 21.7853C89.8718 22.5701 89.6574 23.148 90.7767 23.2438C90.8975 23.254 91.03 23.4936 91.1014 23.6515C91.5207 24.5852 92.1713 25.5004 92.2764 26.4687C92.4561 28.1331 93.837 29.4205 93.6605 31.1491C93.6573 31.1858 93.691 31.2357 93.7214 31.2663C94.5643 32.1051 94.8827 33.2671 95.6363 34.1671C95.9642 34.5595 96.1985 34.9774 96.8333 34.8122C97.1612 34.7276 97.3146 34.9651 97.4513 35.2159C98.332 36.8375 98.9489 38.5121 99.1328 40.3753C99.24 41.4608 98.5978 42.798 99.9283 43.6287C99.984 43.6634 100.023 43.8173 99.9914 43.8733C99.5784 44.5868 99.9777 45.3451 99.8474 46.0749C99.4365 48.3937 99.6288 50.7502 99.3861 53.0873C99.116 55.6965 98.787 58.2803 98.2121 60.8437C97.7087 63.0901 96.6883 65.1898 96.2942 67.4637C96.1817 68.114 96.1334 68.7887 95.549 69.2678C95.2831 69.4859 95.3483 69.8406 95.2768 70.1351C95.1076 70.8242 94.9962 71.5285 94.7934 72.2083C94.5653 72.9727 94.5769 73.8982 93.9768 74.4415C93.2643 75.0866 93.464 75.9387 93.1224 76.6481C92.6989 77.5308 92.2322 78.3981 92.0136 79.3664C91.9611 79.5998 91.7341 79.8404 91.5207 79.9882C90.3164 80.8229 89.938 82.4894 88.3542 82.9338C87.6448 84.0998 86.2418 84.6135 85.5219 85.7724C85.4063 85.9589 85.255 86.1546 85.069 86.2647C83.893 86.9659 82.9807 88.0066 81.8247 88.7068C80.4469 89.5426 79.3476 91.2019 77.3035 90.4038C77.2657 90.3895 77.21 90.3997 77.1679 90.414C75.6567 90.9369 73.8827 90.5934 72.5532 91.7258C72.5395 91.738 72.4323 91.6463 72.3325 91.578C72.6541 91.154 73.1134 90.8186 73.2836 90.2825C72.6488 89.8799 72.1202 89.9666 71.5811 90.4945C70.9274 91.1356 70.136 91.7268 69.867 92.5799C69.6589 93.2393 69.1061 93.4228 68.7866 93.2985C67.9774 92.9815 67.6642 93.7479 67.1019 93.8193C66.3169 93.9192 66.0941 94.5205 65.7399 95.0077C65.3058 95.603 65.062 96.4449 63.9974 96.0107C63.7988 95.9291 63.6727 96.135 63.5644 96.2665C63.3217 96.5611 62.9832 96.7313 62.6343 96.8006C61.1399 97.0992 59.6507 97.2338 58.1709 97.8147C56.9287 98.303 55.4511 98.4273 54.0933 98.7789C53.676 98.887 53.2641 98.8849 52.8931 98.678C52.4517 98.4314 52.2331 98.4813 51.9252 98.941C51.2683 99.9235 50.2068 100.022 49.2431 99.3049C49.2063 99.2784 49.179 99.2407 49.1433 99.2131C48.1628 98.4834 47.9694 98.4813 47.1696 99.1744C47.0183 99.3049 46.827 99.3059 46.6546 99.2223C46.3562 99.0776 46.1481 99.0195 45.8128 99.2824C45.3872 99.6157 44.8239 99.5648 44.2784 99.3691C43.2926 99.0154 43.2716 99.0276 42.5044 99.9134C42.352 100.09 42.289 99.9419 42.2354 99.9072C41.9464 99.7238 41.6279 99.737 41.3074 99.7228C40.825 99.7013 40.5108 99.5515 40.6779 98.9777C40.7756 98.6403 40.5696 98.4803 40.2228 98.5241C39.546 98.6097 38.8545 98.5384 38.1871 98.5323C37.4735 98.5251 36.2586 99.1754 36.0915 97.6883C36.0695 97.4906 35.8267 97.4498 35.6449 97.511C33.4663 98.251 31.728 97.2725 29.9183 96.2808C29.2383 95.9077 28.6403 95.1973 27.7607 95.2615C26.716 95.338 26.0308 94.7499 25.1511 94.2311C25.706 94.0619 26.3103 94.1934 26.3597 93.5788C26.4112 92.9478 25.8742 92.9774 25.4223 92.8673C24.4018 92.6197 23.2111 92.6258 22.7707 91.3721C22.7266 91.2478 22.4555 91.21 22.3104 91.1051C22.0204 90.8941 21.662 90.7147 21.4802 90.4324C20.8381 89.4345 19.8775 89.0605 18.7424 88.9504C17.1545 88.7965 14.6732 86.7356 14.278 85.2628C14.2318 85.0915 14.1193 84.9213 14.216 84.7521C14.5502 84.1671 14.0489 84.0142 13.7063 83.7431C12.7415 82.9786 11.3122 82.522 11.6023 80.8882C11.6349 80.7057 11.535 80.6385 11.4016 80.6191C9.98593 80.4132 10.3117 79.2125 10.0847 78.3635C10.0269 78.1464 10.1005 77.9273 9.81252 77.9527C8.95074 78.0271 8.6113 77.3269 8.5041 76.8255C8.28235 75.7919 7.52356 75.162 6.96025 74.3833C6.83519 74.2101 6.6271 74.0918 6.54197 73.8727C5.72012 71.771 4.41485 69.8589 3.95139 67.6146C3.83578 67.0529 3.70441 66.4659 3.43011 65.9685C2.21101 63.7577 1.98715 61.2769 1.34082 58.9133C1.02554 57.7605 1.06022 56.5252 0.78907 55.3714C0.284615 53.2228 0.267799 51.0427 0.214203 48.8809C0.184776 47.8117 -0.135765 46.7557 0.06707 45.6651ZM27.8931 13.5834C27.272 13.3857 27.0555 13.6507 26.7171 13.932C27.2467 14.2001 27.4927 13.9555 27.8931 13.5834ZM88.5182 31.7637C88.6264 31.7025 88.761 31.619 88.68 31.4783C88.6086 31.357 88.4625 31.3703 88.3406 31.4273C88.225 31.4824 88.1115 31.5486 88.1798 31.7076C88.2765 31.8167 88.3963 31.833 88.5182 31.7637ZM85.5871 30.7414C86.2198 30.8871 86.0579 30.2807 86.4194 29.8944C85.8887 29.9464 85.4799 29.8414 85.3317 30.3245C85.2981 30.4346 85.4673 30.7139 85.5871 30.7414ZM84.7936 28.3951C85.1005 28.5327 85.1142 28.5154 85.524 27.6245C85.0521 27.5726 84.6717 27.6602 84.6286 28.2106C84.6234 28.2697 84.7211 28.3635 84.7936 28.3951ZM66.5207 18.5033C66.0321 18.3138 65.433 18.7653 64.9895 19.0955C64.7951 19.2402 65.0484 19.5032 65.267 19.5776C65.9522 19.811 66.6248 20.1097 67.3615 20.1413C67.99 20.1688 68.6111 20.1932 69.1902 20.5316C68.7267 19.2932 67.5696 18.91 66.5207 18.5033ZM76.8211 26.1884C76.8568 26.1303 76.9409 26.0498 76.9241 26.006C76.8505 25.8174 76.7454 25.6329 76.4859 25.7002C76.4554 25.7084 76.4281 25.847 76.4501 25.9071C76.5079 26.0692 76.612 26.1986 76.8211 26.1884ZM71.6693 53.1005C71.704 53.075 71.7534 53.0567 71.7671 53.0231C71.8648 52.7886 72.0834 52.5614 71.9237 52.2974C71.848 52.172 71.6809 52.2505 71.5895 52.3463C71.3267 52.6225 71.3089 52.8824 71.6693 53.1005ZM71.8722 27.1649C72.0235 27.1455 72.1108 27.0558 72.1202 26.9152C72.1412 26.589 71.6683 26.1049 71.3709 26.1609C71.1649 26.1996 71.0997 26.379 71.1302 26.5554C71.1859 26.8897 71.5758 27.1944 71.8722 27.1649ZM65.0536 23.5282C66.918 23.5364 68.7351 23.888 70.5459 24.2875C71.2385 24.4404 71.8827 24.5699 72.096 25.37C72.1454 25.5555 72.3619 25.7838 72.549 25.8378C73.6388 26.1528 74.2726 27.0538 75.0639 27.7102C75.479 27.4604 74.9 27.0711 75.2983 26.8764C75.9236 26.8479 75.6714 27.7897 76.4964 27.7367C75.8427 26.481 75.3393 25.2416 74.116 24.4527C73.9268 24.3314 73.7408 24.1999 73.5758 24.0511C70.6846 21.4459 67.0536 20.6947 63.3227 20.1912C63.1871 20.1729 63.0495 20.1616 62.9128 20.1657C62.4756 20.1769 62.3201 20.3879 62.2444 20.8221C62.0206 22.1043 63.7799 23.5221 65.0536 23.5282ZM44.8659 13.9402C44.5601 13.9626 44.3856 14.2001 44.3709 14.4814C44.3531 14.8249 44.621 14.9074 44.9111 14.9258C45.2264 14.884 45.4429 14.7403 45.4072 14.4141C45.3735 14.1216 45.1749 13.9178 44.8659 13.9402ZM55.5373 14.7209C55.7485 14.7056 55.9923 14.6618 56.2393 14.2511C54.4716 13.827 52.7974 13.7394 51.1233 13.7088C50.8185 13.7037 50.5064 13.8189 50.1816 13.7445C49.9504 13.6915 49.7129 13.718 49.6015 13.9646C49.4796 14.2358 49.5616 14.4804 49.7539 14.7016C49.9798 14.9604 50.272 15.0685 50.6073 15.0481C52.2509 14.9462 53.8946 14.8422 55.5373 14.7209ZM41.1035 97.9105C41.2706 97.9136 41.4787 97.9207 41.4808 97.6782C41.4829 97.4937 41.381 97.3632 41.1792 97.3275C41.0016 97.3479 40.8219 97.3836 40.7998 97.5915C40.7777 97.7923 40.9059 97.9065 41.1035 97.9105ZM37.4305 21.1554C38.2313 20.7936 38.8713 21.2451 39.4798 21.5967C40.7735 22.3438 41.9874 22.3469 43.3315 21.6528C44.4687 21.0657 45.5732 20.4633 46.5432 19.6388C47.2064 19.0751 47.9757 18.6817 48.7923 18.38C50.4948 17.7511 52.0775 16.894 53.6424 15.9583C52.2226 15.8258 50.9877 16.4394 49.6919 16.7747C49.1254 16.9215 48.6042 17.3016 48.1291 16.5923C48.0072 16.4088 47.5721 16.3273 47.466 16.6738C47.0761 17.9407 45.9904 17.9091 44.9626 17.9907C44.7882 18.0039 44.476 17.8694 44.4476 17.9193C43.9201 18.8631 42.7535 18.4228 42.0609 18.9752C41.7005 19.2637 41.4629 19.1628 41.382 18.7551C41.257 18.1242 40.8807 18.2424 40.4782 18.4401C40.2754 18.54 40.0179 18.6389 39.917 18.8111C39.3947 19.6979 38.5287 20.0322 37.5881 20.2819C37.4262 20.3247 37.2707 20.4491 37.1509 20.5724C37.029 20.6978 36.947 20.87 37.071 21.0484C37.1583 21.1738 37.3054 21.2125 37.4305 21.1554ZM35.6638 27.2739C35.9276 27.331 36.1063 27.1638 36.1704 26.9366C36.2387 26.694 36.0947 26.4799 35.8719 26.4096C35.5377 26.3036 35.4252 26.6063 35.2729 26.747C35.2581 27.0782 35.4305 27.224 35.6638 27.2739ZM28.7748 69.013C28.9367 68.9406 29.0743 68.8162 29.0039 68.6195C28.9882 68.5767 28.8463 68.5482 28.7685 68.5584C28.5814 68.5839 28.4301 68.6644 28.4543 68.8896C28.5268 69.0181 28.6498 69.069 28.7748 69.013ZM28.6004 29.2299C31.2225 27.9833 33.8425 26.7327 36.4531 25.4637C36.7873 25.3017 37.3642 25.1896 37.1877 24.6779C37.0479 24.2753 36.5308 24.2947 36.1199 24.2417C34.1925 23.993 32.533 24.4965 31.1605 25.85C30.9009 26.1049 30.6003 26.3067 30.2367 26.3964C29.7217 26.5238 29.397 26.8856 29.0439 27.1863C29.2068 27.5389 29.6282 27.2892 29.7753 27.6857C29.4863 28.0027 29.0281 28.0271 28.6235 28.1372C28.5058 28.1688 28.2998 28.0282 28.2336 28.0822C27.9099 28.3451 27.3182 28.4175 27.376 28.974C27.4222 29.4245 27.9561 29.5356 28.6004 29.2299ZM27.4706 67.3078C27.459 67.1009 27.2951 67.0275 27.1101 67.0417C26.9031 67.0581 26.8432 67.2211 26.8137 67.3944C26.8348 67.6146 26.9924 67.6665 27.1763 67.6492C27.3771 67.6309 27.4811 67.4933 27.4706 67.3078ZM26.7423 70.5214C26.8516 70.4868 26.9861 70.3798 27.0124 70.2799C27.0471 70.1474 26.9325 70.0444 26.7297 70.0373C26.6656 70.1127 26.5458 70.1973 26.5153 70.3064C26.4743 70.4542 26.5857 70.5704 26.7423 70.5214ZM26.0623 69.7754C26.201 69.7305 26.2546 69.6092 26.158 69.49C26.1243 69.4492 25.9835 69.44 25.9352 69.4747C25.8816 69.5124 25.8784 69.6163 25.8532 69.6918C25.9236 69.7224 26.0087 69.7927 26.0623 69.7754ZM17.5633 23.7647C17.4014 23.888 17.392 24.0664 17.5297 24.2182C17.6547 24.3558 17.887 24.4629 17.9984 24.3375C18.3336 23.9573 18.9831 23.8228 18.9884 23.0461C18.3074 23.0053 17.97 23.4548 17.5633 23.7647ZM24.385 73.0186C24.757 73.0125 24.7476 72.6883 24.7549 72.4284C24.7633 72.1604 24.7476 71.8138 24.4228 71.7924C23.9783 71.7629 24.0718 72.2103 23.9615 72.4478C23.9352 72.776 24.0508 73.0237 24.385 73.0186ZM22.5774 67.3699C22.6257 67.5626 22.7665 67.6961 22.9568 67.6839C23.2216 67.6676 23.3876 67.4607 23.3372 67.2272C23.2174 66.6728 23.1144 66.1071 22.8054 65.6066C22.6888 65.4191 22.6015 65.2142 22.4618 64.9401C22.6383 64.8035 22.9021 64.7005 22.9631 64.5303C23.0997 64.1501 23.1239 63.6619 22.6814 63.4927C22.2421 63.3246 21.868 63.4509 21.6494 64.0227C21.147 65.3325 21.0777 65.3396 22.199 66.2906C22.5826 66.6157 22.4838 67.001 22.5774 67.3699ZM21.703 68.115C21.9216 68.0498 21.971 67.8898 21.9426 67.7053C21.9132 67.5126 21.7723 67.3862 21.5811 67.3811C21.3782 67.375 21.2374 67.5086 21.2637 67.7114C21.2931 67.9499 21.4476 68.0977 21.703 68.115ZM17.8113 62.922C18.2643 63.0422 18.7635 62.9209 19.1933 63.2237C19.3079 63.3042 19.5727 63.1075 19.5864 62.9372C19.6904 61.6938 20.5343 61.3819 21.6294 61.3503C21.8428 61.3442 22.1349 61.3574 22.1475 61.0649C22.158 60.8274 21.9678 60.6603 21.7103 60.6531C21.4402 60.646 21.2427 60.645 21.0262 60.381C20.5448 59.7959 19.97 59.7633 19.517 60.3107C19.1912 60.7041 18.8833 60.9823 18.361 61.1097C17.639 61.2861 17.9164 62.1066 17.5318 62.4511C17.5076 62.7303 17.6411 62.8771 17.8113 62.922ZM17.6905 60.6766C18.0162 60.8468 18.3189 60.7265 18.5743 60.5196C18.8591 60.2882 18.734 60.0834 18.5154 59.8591C18.2674 59.6053 18.3357 59.3047 18.692 59.2853C19.6463 59.2333 19.7755 58.1183 20.6247 57.9409C20.7813 57.9083 20.8097 57.6392 20.7603 57.4649C20.6257 56.9889 20.652 56.5017 20.611 56.0196C20.5722 55.5732 20.4219 55.0799 19.9174 54.978C19.3856 54.871 18.9369 55.1237 18.7298 55.6568C18.6825 55.7781 18.6636 55.9085 18.6321 56.0359C17.6579 56.6047 17.2953 57.4058 17.6757 58.4821C17.8533 58.9836 17.7136 59.4412 17.4887 59.8877C17.3247 60.2108 17.3394 60.4921 17.6905 60.6766ZM5.88197 45.2085C5.96395 45.129 6.02701 45.0302 6.09637 44.9374C6.02806 44.8997 5.95449 44.8243 5.89039 44.8314C5.75166 44.8467 5.67599 44.9445 5.69701 45.0913C5.76006 45.1321 5.87147 45.2187 5.88197 45.2085Z" fill="#FF6666"/>
<path d="M18.6305 56.0426C18.6305 56.0405 18.6316 56.0374 18.6326 56.0353C18.643 56.0291 18.6493 56.0208 18.6597 56.0146L18.6305 56.0426Z" fill="#FF6666"/>
<path d="M79.6505 9.25679C79.311 9.28941 78.5186 8.66461 78.4881 8.34049C78.5449 8.0969 78.7551 7.98172 78.9758 7.95828C79.3793 7.91445 80.1749 8.56677 80.1434 8.9021C80.1182 9.17016 79.8838 9.23437 79.6505 9.25679Z" fill="#FF6666"/>
<path d="M81.9994 11.5134C81.7114 11.2178 81.4918 10.859 81.1954 10.4636C81.848 10.2923 82.1917 10.6582 82.5532 10.962C82.7224 11.1036 82.9126 11.2953 82.7203 11.5052C82.5154 11.7284 82.1948 11.7142 81.9994 11.5134Z" fill="#FF6666"/>
<path d="M77.0439 6.4029C76.468 6.27346 75.9961 6.17969 75.5306 6.0584C75.0703 5.93915 75.0461 5.62115 75.1606 5.25626C75.8238 5.48864 76.5426 5.63134 77.0439 6.4029Z" fill="#FF6666"/>
<path d="M75.139 5.24969L75.1692 5.21954C75.165 5.23202 75.164 5.24449 75.1609 5.25697C75.1546 5.25489 75.1463 5.25281 75.139 5.24969Z" fill="#FF6666"/>
<path d="M88.2114 19.3687C87.8393 19.3626 87.6281 19.1934 87.6544 18.8091C87.709 18.59 87.7963 18.3392 88.0537 18.3668C88.4741 18.4126 88.6255 18.7449 88.6139 19.1129C88.6086 19.3096 88.3995 19.3717 88.2114 19.3687Z" fill="#FF6666"/>
<path d="M74.1035 13.9392C73.2607 13.6171 72.9012 13.1207 72.6511 12.5377C73.1871 12.8608 73.6537 13.2583 74.1035 13.9392Z" fill="#FF6666"/>
<path d="M72.5866 12.4949L72.6168 12.4654C72.6272 12.4908 72.6407 12.5122 72.6511 12.5377C72.6293 12.5245 72.6095 12.5082 72.5866 12.4949Z" fill="#FF6666"/>
<path d="M83.9846 13.3868C83.787 13.4143 83.5863 13.4275 83.6252 13.1707C83.6578 12.9536 83.7912 12.7497 84.0424 12.7467C84.2862 12.7436 84.4807 12.9363 84.4775 13.1442C84.4722 13.4449 84.1444 13.3073 83.9846 13.3868Z" fill="#FF6666"/>
<path d="M76.4607 16.8063L76.4357 16.8369C76.4295 16.8063 76.4128 16.7829 76.4056 16.7533C76.4232 16.7717 76.443 16.789 76.4607 16.8063Z" fill="#FF6666"/>
<path d="M75.4319 15.5384C75.8197 15.8972 76.2632 16.2203 76.4041 16.7533C76.0299 16.3854 75.578 16.0735 75.4319 15.5384Z" fill="#FF6666"/>
<path d="M76.6101 7.02873C76.9064 6.90438 77.0988 7.05523 77.2543 7.26417C77.2732 7.28965 77.1902 7.44254 77.1545 7.44254C76.8718 7.44152 76.6931 7.29373 76.6101 7.02873Z" fill="#FF6666"/>
<path d="M86.3691 16.2406C86.3197 16.1336 86.0181 16.2896 86.0759 16.0164C86.0874 15.9614 86.305 15.9074 86.4174 15.9226C86.5225 15.9369 86.6917 16.0409 86.6949 16.1112C86.7012 16.2671 86.5404 16.258 86.3691 16.2406Z" fill="#FF6666"/>
<path d="M51.1812 6.68829C51.3147 6.67096 51.4492 6.65873 51.5837 6.64548C51.5847 6.67707 51.59 6.73517 51.5858 6.73619C51.4523 6.75556 51.3189 6.76881 51.1812 6.78308C51.1812 6.74231 51.178 6.6893 51.1812 6.68829Z" fill="#FF6666"/>
<path d="M85.1858 14.3367C85.1437 14.2908 85.0639 14.2388 85.0376 14.1685C85.0008 14.0717 85.0723 14.0003 85.17 14.035C85.2425 14.0615 85.3214 14.1308 85.3487 14.2001C85.3876 14.2939 85.3203 14.3479 85.1858 14.3367Z" fill="#FF6666"/>
<path d="M18.6318 56.0416L18.6588 56.0146C18.6661 56.0229 18.6734 56.0312 18.6807 56.0395C18.664 56.0405 18.6484 56.0405 18.6318 56.0416Z" fill="#FF6666"/>
<path d="M19.4689 56.1787C19.492 56.2306 19.4415 56.358 19.3869 56.3927C19.1347 56.5537 18.9823 56.3713 18.832 56.2103C18.7794 56.1542 18.7311 56.0961 18.6806 56.038C18.7532 56.0329 18.8257 56.0258 18.8982 56.0268C19.1031 56.0329 19.3501 55.9126 19.4689 56.1787Z" fill="#FF6666"/>
</svg>
