<svg width="50" height="50" viewBox="0 0 50 50" fill="none" xmlns="http://www.w3.org/2000/svg">
<g clip-path="url(#clip0_359_403)">
<path d="M26.3767 49.3069C25.49 48.9778 24.5097 48.9778 23.623 49.3069C21.9184 49.9398 19.9941 49.9999 19.9941 49.9999C3.375 49.9999 3.375 25.3716 3.375 25.3716C3.375 17.6307 9.6502 11.3555 17.3911 11.3555C19.8071 11.3555 22.0677 11.9449 24.0409 12.9964C24.6418 13.3166 25.3579 13.3166 25.9589 12.9964C27.9321 11.9449 30.1927 11.3555 32.6087 11.3555C40.3496 11.3555 46.6248 17.6307 46.6248 25.3716C46.6248 25.3716 46.6248 49.9999 30.0057 49.9999C30.0056 49.9999 28.0813 49.9397 26.3767 49.3069Z" fill="#DF75A5"/>
<path d="M37.7993 12.3486C39.1598 15.3763 39.9171 18.7336 39.9171 22.2681C39.9171 35.6487 29.0699 46.4959 15.6893 46.4959C13.7595 46.4959 11.8829 46.269 10.0835 45.8428C12.4523 48.322 15.657 49.9999 19.9942 49.9999C19.9942 49.9999 21.9185 49.9397 23.6231 49.3068C24.5098 48.9777 25.4901 48.9777 26.3768 49.3068C28.0814 49.9397 30.0057 49.9999 30.0057 49.9999C46.6248 49.9999 46.6248 25.3716 46.6248 25.3716C46.6249 19.4646 42.9705 14.4115 37.7993 12.3486Z" fill="#DD5790"/>
<path d="M24.9996 18.9065C24.9994 18.9065 24.9993 18.9065 24.9991 18.9065C24.5888 18.9062 24.2563 18.5737 24.2563 18.1634C24.2563 18.0447 24.2681 15.2164 25.285 11.5809C26.6382 6.74297 29.1517 2.79229 32.5535 0.155864C32.8781 -0.0956985 33.3449 -0.0364212 33.5964 0.287993C33.8479 0.612505 33.7887 1.0794 33.4642 1.33086C29.5002 4.40303 27.6132 8.79561 26.7283 11.9397C25.7581 15.3867 25.743 18.1366 25.743 18.1639C25.7424 18.574 25.4097 18.9065 24.9996 18.9065Z" fill="#EFCB84"/>
<path d="M24.9999 18.9067C21.8612 18.9067 20.4588 17.085 20.4006 17.0075C20.1543 16.6791 20.2209 16.2132 20.5493 15.9669C20.8778 15.7207 21.3435 15.7871 21.5899 16.1155C21.6272 16.163 22.6394 17.4201 24.9998 17.4201C27.3603 17.4201 28.3725 16.163 28.4144 16.1095C28.6607 15.7809 29.1242 15.7175 29.4528 15.9638C29.7812 16.21 29.8455 16.6791 29.5992 17.0075C29.5411 17.085 28.1387 18.9067 24.9999 18.9067Z" fill="#DD5790"/>
<path d="M26.3339 13.4276C26.3664 14.0183 25.8797 14.5051 25.2889 14.4725C23.5572 14.377 20.0332 13.8352 17.3516 11.1537C14.6701 8.47215 14.1283 4.94812 14.0328 3.21638C14.0003 2.62566 14.487 2.13894 15.0777 2.17146C16.8095 2.26697 20.3335 2.80877 23.015 5.49031C25.6966 8.17185 26.2384 11.6959 26.3339 13.4276Z" fill="#A2F4C1"/>
<path d="M23.0152 5.49028C22.3331 4.80815 21.5965 4.26489 20.8487 3.83179C21.154 5.0189 21.3229 6.31939 21.3229 7.68315C21.3229 9.72788 20.9439 11.6305 20.293 13.2214C22.2347 14.1537 24.151 14.4097 25.2904 14.4724C25.8806 14.5049 26.3665 14.0176 26.334 13.4275C26.2386 11.6958 25.6968 8.17183 23.0152 5.49028Z" fill="#86F1A7"/>
</g>
<defs>
<clipPath id="clip0_359_403">
<rect width="50" height="50" fill="white"/>
</clipPath>
</defs>
</svg>
