<svg width="50" height="50" viewBox="0 0 50 50" fill="none" xmlns="http://www.w3.org/2000/svg">
<path d="M12.2969 8.23174H21.6465V2.03252C21.6465 0.909961 20.7364 0 19.614 0H14.3294C13.2068 0 12.2969 0.909961 12.2969 2.03252V8.23174Z" fill="#DF75A5"/>
<path d="M12.2969 6.19922H21.6465V8.23174H12.2969V6.19922Z" fill="#DD5790"/>
<path d="M43.9351 46.748H41.7681V29.4717H43.1736C44.653 29.4717 45.9189 30.5338 46.176 31.9906L47.9382 41.9767C48.3775 44.4657 46.4627 46.748 43.9351 46.748Z" fill="#DD5790"/>
<path d="M6.06472 46.748H8.23171V29.4717H6.82615C5.34675 29.4717 4.08084 30.5338 3.8238 31.9906L2.0615 41.9766C1.62224 44.4657 3.53709 46.748 6.06472 46.748Z" fill="#DD5790"/>
<path d="M40.6961 20.6301H9.30391L6.35029 43.3189C6.31729 43.5722 6.30078 43.8273 6.30078 44.0828C6.30078 47.3508 8.95 50 12.2181 50H37.7818C41.0499 50 43.6991 47.3508 43.6991 44.0828C43.6991 43.8274 43.6826 43.5722 43.6496 43.3189L40.6961 20.6301Z" fill="#AC80DD"/>
<path d="M40.4248 43.739L39.2538 34.6981C39.1226 33.6851 38.2598 32.9268 37.2381 32.9268H12.7617C11.7401 32.9268 10.8772 33.6851 10.746 34.6981L9.575 43.739C9.56025 43.8523 9.55273 43.9681 9.55273 44.0826C9.55273 45.5522 10.7483 46.7479 12.218 46.7479H37.7817C39.2514 46.7479 40.447 45.5522 40.447 44.0826C40.4471 43.9681 40.4396 43.8523 40.4248 43.739Z" fill="#A2F4C1"/>
<path d="M40.4248 43.739L39.2538 34.6981C39.1226 33.6851 38.2598 32.9268 37.2381 32.9268H33.5796C34.6012 32.9268 35.4641 33.6851 35.5953 34.6981L36.7663 43.739C36.7811 43.8523 36.7886 43.9681 36.7886 44.0826C36.7886 45.5522 35.593 46.7479 34.1233 46.7479H37.7818C39.2515 46.7479 40.4471 45.5522 40.4471 44.0826C40.4471 43.9681 40.4396 43.8523 40.4248 43.739Z" fill="#86F1A7"/>
<path d="M8.66797 25.5148C9.22393 25.7098 9.81523 25.813 10.4214 25.813H39.5785C40.1847 25.813 40.776 25.7098 41.3319 25.5148L40.6961 20.6301H9.30381L8.66797 25.5148Z" fill="#9D66D5"/>
<path d="M42.5688 19.9343L40.7315 10.6864C40.448 9.25952 39.196 8.23169 37.7412 8.23169H12.2587C10.8039 8.23169 9.55186 9.25952 9.26836 10.6864L7.43106 19.9343C7.05645 21.8198 8.49902 23.5772 10.4214 23.5772H39.5786C41.5009 23.5772 42.9435 21.8198 42.5688 19.9343Z" fill="#FFE07D"/>
<path d="M42.5687 19.9343L40.7314 10.6864C40.4479 9.25952 39.1959 8.23169 37.7411 8.23169H35.2476C36.7023 8.23169 37.9544 9.25952 38.2379 10.6864L40.0752 19.9343C40.4498 21.8198 39.0072 23.5772 37.0849 23.5772H39.5784C41.5008 23.5772 42.9434 21.8198 42.5687 19.9343Z" fill="#FFD064"/>
<path d="M37.7031 8.23174H28.3535V2.03252C28.3535 0.909961 29.2636 0 30.386 0H35.6706C36.7932 0 37.7031 0.909961 37.7031 2.03252V8.23174Z" fill="#DF75A5"/>
<path d="M28.3535 6.19922H37.7031V8.23174H28.3535V6.19922Z" fill="#DD5790"/>
<path d="M30.0813 19.1564H19.9187C19.3574 19.1564 18.9023 18.7015 18.9023 18.1402V13.6687C18.9023 13.1074 19.3573 12.6523 19.9187 12.6523H30.0813C30.6425 12.6523 31.0976 13.1073 31.0976 13.6687V18.1402C31.0976 18.7014 30.6426 19.1564 30.0813 19.1564Z" fill="#E4FBEF"/>
<path d="M31.9107 39.3723C31.494 39.3723 31.1562 39.0345 31.1562 38.6178V36.5853C31.1562 36.1685 31.494 35.8308 31.9107 35.8308C32.3274 35.8308 32.6652 36.1686 32.6652 36.5853V38.6178C32.6652 39.0345 32.3274 39.3723 31.9107 39.3723Z" fill="#DD5790"/>
<path d="M34.1462 37.3398H15.8536C15.4369 37.3398 15.0991 37.002 15.0991 36.5853C15.0991 36.1685 15.4369 35.8308 15.8536 35.8308H34.1463C34.563 35.8308 34.9008 36.1686 34.9008 36.5853C34.9008 37.002 34.563 37.3398 34.1462 37.3398Z" fill="#DF75A5"/>
</svg>
