<svg width="50" height="50" viewBox="0 0 50 50" fill="none" xmlns="http://www.w3.org/2000/svg">
<g clip-path="url(#clip0_317_6062)">
<path d="M25.0001 50.0001C24.5896 50.0001 24.2568 49.6674 24.2568 49.2567V35.9415C24.2568 35.531 24.5896 35.1982 25.0001 35.1982C25.4106 35.1982 25.7435 35.531 25.7435 35.9415V49.2568C25.7435 49.6674 25.4106 50.0001 25.0001 50.0001Z" fill="#FFE07D"/>
<path d="M36.6135 50.0001C36.2029 50.0001 35.8701 49.6673 35.8701 49.2567V39.0683C35.8701 38.6578 36.2028 38.325 36.6135 38.325C37.0241 38.325 37.3567 38.6577 37.3567 39.0683V49.2567C37.3567 49.6673 37.024 50.0001 36.6135 50.0001Z" fill="#FFE07D"/>
<path d="M13.3863 50.0001C12.9758 50.0001 12.6431 49.6673 12.6431 49.2567V39.0683C12.6431 38.6578 12.9758 38.325 13.3863 38.325C13.7969 38.325 14.1296 38.6577 14.1296 39.0683V49.2567C14.1297 49.6673 13.7969 50.0001 13.3863 50.0001Z" fill="#FFE07D"/>
<path d="M38.9158 38.4677C38.9158 39.7394 37.8849 39.0684 36.6132 39.0684C35.3415 39.0684 34.3105 39.7394 34.3105 38.4677C34.3105 37.196 35.3415 36.165 36.6132 36.165C37.8849 36.165 38.9158 37.1959 38.9158 38.4677Z" fill="#86F1A7"/>
<path d="M49.6281 16.142C49.6281 23.33 43.8011 36.165 36.6132 36.165C29.4253 36.165 23.5981 23.33 23.5981 16.142C23.5981 8.954 29.4252 3.12695 36.6132 3.12695C43.8012 3.12695 49.6281 8.954 49.6281 16.142Z" fill="#A2F4C1"/>
<path d="M23.5981 16.142C23.5981 21.2473 26.5381 29.1999 30.8169 33.3806C32.801 31.936 34.6586 29.7573 36.2871 26.9173C38.7962 22.5417 40.4175 17.0848 40.4175 13.015C40.4175 9.25625 39.0647 5.80791 36.8214 3.12959C36.7521 3.12852 36.6827 3.12695 36.6131 3.12695C29.4252 3.12695 23.5981 8.954 23.5981 16.142Z" fill="#86F1A7"/>
<path d="M11.084 38.4677C11.084 39.7394 12.1149 39.0684 13.3866 39.0684C14.6583 39.0684 15.6893 39.7394 15.6893 38.4677C15.6893 37.196 14.6583 36.165 13.3866 36.165C12.1149 36.165 11.084 37.1959 11.084 38.4677Z" fill="#DD5790"/>
<path d="M0.371582 16.142C0.371582 23.33 6.19863 36.165 13.3865 36.165C20.5744 36.165 26.4015 23.33 26.4015 16.142C26.4015 8.954 20.5745 3.12695 13.3865 3.12695C6.19853 3.12695 0.371582 8.954 0.371582 16.142Z" fill="#DF75A5"/>
<path d="M26.4014 16.142C26.4014 21.2473 23.4614 29.1999 19.1826 33.3806C17.1985 31.936 15.3409 29.7573 13.7124 26.9173C11.2033 22.5417 9.58203 17.0848 9.58203 13.015C9.58203 9.25625 10.9348 5.80791 13.1781 3.12959C13.2475 3.12852 13.3168 3.12695 13.3864 3.12695C20.5743 3.12695 26.4014 8.954 26.4014 16.142Z" fill="#DD5790"/>
<path d="M27.3025 35.3407C27.3025 36.6124 26.2716 35.9414 24.9999 35.9414C23.7282 35.9414 22.6973 36.6124 22.6973 35.3407C22.6973 34.069 23.7282 33.0381 24.9999 33.0381C26.2716 33.0381 27.3025 34.069 27.3025 35.3407Z" fill="#9D66D5"/>
<path d="M38.0147 13.0149C38.0147 20.2029 32.1877 33.038 24.9998 33.038C17.8119 33.038 11.9849 20.2029 11.9849 13.0149C11.9849 5.82695 17.8118 0 24.9998 0C32.1878 0 38.0147 5.82705 38.0147 13.0149Z" fill="#AC80DD"/>
<path d="M32.223 2.1875C33.6046 4.2542 34.4105 6.73828 34.4105 9.41074C34.4105 16.5987 28.5835 29.4338 21.3956 29.4338C19.971 29.4338 18.6003 28.9282 17.3174 28.0638C19.4706 30.9856 22.1262 33.038 24.9998 33.038C32.1878 33.038 38.0147 20.2029 38.0147 13.0149C38.0146 8.49941 35.7148 4.52158 32.223 2.1875Z" fill="#9D66D5"/>
</g>
<defs>
<clipPath id="clip0_317_6062">
<rect width="50" height="50" fill="white"/>
</clipPath>
</defs>
</svg>
