<svg width="50" height="50" viewBox="0 0 50 50" fill="none" xmlns="http://www.w3.org/2000/svg">
<path d="M43.2927 50H6.70732C5.58477 50 4.6748 49.09 4.6748 47.9674V43.9024C4.6748 42.7798 5.58477 41.8699 6.70732 41.8699H43.2927C44.4152 41.8699 45.3252 42.7798 45.3252 43.9024V47.9674C45.3252 49.09 44.4152 50 43.2927 50Z" fill="#F1D59D"/>
<path d="M43.2926 41.8699H38.5161C39.6387 41.8699 40.5486 42.7798 40.5486 43.9024V47.9674C40.5486 49.09 39.6387 50 38.5161 50H43.2926C44.4151 50 45.3251 49.09 45.3251 47.9674V43.9024C45.3251 42.7798 44.4151 41.8699 43.2926 41.8699Z" fill="#EFCB84"/>
<path d="M38.6179 41.87H11.3821C9.36162 41.87 7.72363 40.232 7.72363 38.2115C7.72363 36.191 9.36162 34.553 11.3821 34.553H38.618C40.6385 34.553 42.2765 36.191 42.2765 38.2115C42.2765 40.232 40.6385 41.87 38.6179 41.87Z" fill="#A2F4C1"/>
<path d="M36.5855 34.5528H13.4148C11.3943 34.5528 9.75635 32.9148 9.75635 30.8943C9.75635 28.8738 11.3943 27.2358 13.4148 27.2358H36.5855C38.6061 27.2358 40.244 28.8738 40.244 30.8943C40.2441 32.9148 38.6062 34.5528 36.5855 34.5528Z" fill="#DF75A5"/>
<path d="M34.5527 27.2357H15.4471C13.4266 27.2357 11.7886 25.5977 11.7886 23.5772C11.7886 21.5567 13.4266 19.9187 15.4471 19.9187H34.5527C36.5732 19.9187 38.2112 21.5567 38.2112 23.5772C38.2113 25.5977 36.5733 27.2357 34.5527 27.2357Z" fill="#AC80DD"/>
<path d="M32.5204 19.9186H17.4798C15.4593 19.9186 13.8213 18.2806 13.8213 16.2601C13.8213 14.2396 15.4593 12.6016 17.4798 12.6016H32.5204C34.5409 12.6016 36.1789 14.2396 36.1789 16.2601C36.179 18.2806 34.541 19.9186 32.5204 19.9186Z" fill="#FFE07D"/>
<path d="M39.3975 34.637C39.4521 34.8883 39.4815 35.149 39.4815 35.4166C39.4815 37.4372 37.8436 39.0751 35.823 39.0751H8.5873C8.31963 39.0751 8.05889 39.0457 7.80762 38.9911C8.16504 40.6369 9.6292 41.8699 11.382 41.8699H38.6178C40.6384 41.8699 42.2763 40.2319 42.2763 38.2114C42.2764 36.4585 41.0434 34.9944 39.3975 34.637Z" fill="#86F1A7"/>
<path d="M37.3651 27.3198C37.4197 27.5712 37.4492 27.8318 37.4492 28.0995C37.4492 30.12 35.8112 31.758 33.7907 31.758H10.62C10.3523 31.758 10.0916 31.7285 9.84033 31.6739C10.1978 33.3197 11.6619 34.5527 13.4147 34.5527H36.5854C38.6061 34.5527 40.2439 32.9147 40.2439 30.8942C40.244 29.1414 39.0109 27.6772 37.3651 27.3198Z" fill="#DD5790"/>
<path d="M35.3323 20.0029C35.3869 20.2543 35.4164 20.5149 35.4164 20.7826C35.4164 22.8031 33.7784 24.4411 31.7579 24.4411H12.6522C12.3846 24.4411 12.1238 24.4116 11.8726 24.357C12.23 26.0028 13.6941 27.2358 15.447 27.2358H34.5526C36.5732 27.2358 38.2111 25.5979 38.2111 23.5773C38.2112 21.8244 36.9781 20.3603 35.3323 20.0029Z" fill="#9D66D5"/>
<path d="M33.3 12.6858C33.3546 12.9372 33.3841 13.1978 33.3841 13.4655C33.3841 15.486 31.7461 17.124 29.7256 17.124H14.685C14.4173 17.124 14.1565 17.0945 13.9053 17.0399C14.2627 18.6857 15.7269 19.9187 17.4797 19.9187H32.5203C34.5409 19.9187 36.1788 18.2807 36.1788 16.2602C36.1789 14.5074 34.9458 13.0431 33.3 12.6858Z" fill="#FFD064"/>
<path d="M21.9512 12.6016V3.04883C21.9512 1.36504 23.3162 0 25 0C26.6838 0 28.0487 1.36494 28.0487 3.04873V12.6016H21.9512Z" fill="#F1D59D"/>
<path d="M25 0C24.6436 0 24.3017 0.0617188 23.9838 0.174219C25.1678 0.592871 26.0163 1.72148 26.0163 3.04883V8.43496C26.0163 9.55752 25.1063 10.4675 23.9838 10.4675H21.9512V12.6017H28.0487V3.04883C28.0487 1.36504 26.6838 0 25 0Z" fill="#EFCB84"/>
</svg>
