<svg width="18" height="18" viewBox="0 0 18 18" fill="none" xmlns="http://www.w3.org/2000/svg">
<g clip-path="url(#clip0_65_88)">
<path d="M2.16028 0.161133C0.999588 0.161133 0.0554199 1.10537 0.0554199 2.26599C0.0554199 3.42661 0.999197 4.37078 2.16028 4.37078C3.32136 4.37078 4.26513 3.42661 4.26513 2.26599C4.26513 1.10537 3.3209 0.161133 2.16028 0.161133Z" fill="#FF6666"/>
<path d="M8.97259 0.161133C7.81197 0.161133 6.86774 1.10537 6.86774 2.26599C6.86774 3.42661 7.81197 4.37078 8.97259 4.37078C10.1333 4.37078 11.0776 3.42661 11.0776 2.26599C11.0776 1.10537 10.1337 0.161133 8.97259 0.161133Z" fill="#FF6666"/>
<path d="M15.8951 4.37085C17.0556 4.37085 18 3.42668 18 2.26605C18 1.10543 17.0564 0.161133 15.8951 0.161133C14.7339 0.161133 13.7903 1.10537 13.7903 2.26599C13.7903 3.42661 14.7346 4.37085 15.8951 4.37085Z" fill="#FF6666"/>
<path d="M2.10525 11.1154C3.26587 11.1154 4.2103 10.1714 4.2103 9.01057C4.2103 7.84969 3.26587 6.90552 2.10525 6.90552C0.944624 6.90552 0 7.84975 0 9.01057C0 10.1714 0.944624 11.1154 2.10525 11.1154Z" fill="#FF6666"/>
<path d="M8.9176 11.1154C10.078 11.1154 11.0225 10.1714 11.0225 9.01057C11.0225 7.84969 10.0788 6.90552 8.9176 6.90552C7.75659 6.90552 6.81274 7.84969 6.81274 9.01057C6.81274 10.1714 7.75698 11.1154 8.9176 11.1154Z" fill="#FF6666"/>
<path d="M15.8407 11.1154C17.0016 11.1154 17.9456 10.1714 17.9456 9.01057C17.9456 7.84969 17.0016 6.90552 15.8407 6.90552C14.6799 6.90552 13.7351 7.84969 13.7351 9.01057C13.7351 10.1714 14.6795 11.1154 15.8407 11.1154Z" fill="#FF6666"/>
<path d="M2.15341 13.6294C0.992781 13.6294 0.0481567 14.5734 0.0481567 15.7343C0.0481567 16.8947 0.992781 17.839 2.15341 17.839C3.31403 17.839 4.2582 16.8951 4.2582 15.7343C4.2582 14.5734 3.31403 13.6294 2.15341 13.6294Z" fill="#FF6666"/>
<path d="M8.96615 13.6294C7.80546 13.6294 6.8609 14.5734 6.8609 15.7343C6.8609 16.8947 7.80513 17.839 8.96615 17.839C10.1266 17.839 11.0709 16.8951 11.0709 15.7343C11.0709 14.5734 10.1266 13.6294 8.96615 13.6294Z" fill="#FF6666"/>
<path d="M15.8885 13.6294C14.7281 13.6294 13.7836 14.5734 13.7836 15.7343C13.7836 16.8947 14.7281 17.839 15.8885 17.839C17.0494 17.839 17.9933 16.8951 17.9933 15.7343C17.9933 14.5734 17.0489 13.6294 15.8885 13.6294Z" fill="#FF6666"/>
</g>
<defs>
<clipPath id="clip0_65_88">
<rect width="18" height="18" fill="white"/>
</clipPath>
</defs>
</svg>
