<svg width="101" height="100" viewBox="0 0 101 100" fill="none" xmlns="http://www.w3.org/2000/svg">
<path d="M76.4595 16.8083C76.4647 16.8307 76.4626 16.848 76.4678 16.8694C76.4574 16.8582 76.4459 16.848 76.4355 16.8378L76.4595 16.8083Z" fill="#FF6666"/>
<path d="M75.1405 5.24806C75.109 5.22054 75.0732 5.19811 75.0407 5.17059C75.0827 5.18894 75.13 5.19506 75.1699 5.22054L75.1405 5.24806Z" fill="#FF6666"/>
<path d="M72.5857 12.4948C72.5584 12.4551 72.5195 12.4265 72.4911 12.3878C72.5332 12.4133 72.5742 12.4408 72.6162 12.4663L72.5857 12.4948Z" fill="#FF6666"/>
<path d="M0.0668259 45.6651C0.356888 44.1067 0.519783 42.5299 0.686882 40.9511C0.986404 38.1115 2.3064 35.543 3.44353 32.9653C4.04152 31.6097 4.93798 30.351 5.60428 28.9903C6.01625 28.1504 6.38724 27.1699 7.47707 26.8121C7.73351 26.7275 7.8901 26.4483 7.95631 26.1894C8.13392 25.4932 8.73926 25.1498 9.24372 24.7523C9.47282 24.5718 9.57687 24.4261 9.67776 24.1642C10.0004 23.3223 9.97729 22.3897 10.549 21.6048C11.787 19.9058 13.1711 18.3657 14.7349 16.9214C18.5331 13.4162 22.9071 10.7754 27.5366 8.49533C32.4834 6.05832 37.591 3.99027 42.8962 2.387C49.121 0.505479 55.4036 -0.589188 61.9751 0.334246C65.1364 0.778636 68.1526 1.55428 71.048 2.79776C72.4773 3.41134 73.8477 4.16049 75.0395 5.17157C74.205 4.81178 72.8315 5.70974 72.5004 4.15029C72.4952 4.12379 72.3323 4.11156 72.2471 4.12074C71.0438 4.24916 70.058 3.61825 69.0039 3.23705C68.7422 3.14226 68.5057 2.99141 68.2336 3.15245C67.7018 3.46842 67.1805 3.32573 66.654 3.14634C65.0807 2.61225 63.416 3.12595 61.8186 2.75903C61.4612 2.67647 61.023 2.90172 60.6268 3.00466C60.3525 3.07601 60.0792 3.22074 60.053 3.51021C60.0151 3.92708 60.4103 3.92708 60.6972 4.04735C62.3178 4.72718 64.0518 5.22152 65.2278 6.63929C65.3645 6.8044 65.5841 6.91856 65.7848 7.01946C67.7438 8.01424 69.2446 9.58388 70.945 10.9007C71.5062 11.336 72.0622 11.8058 72.4899 12.3878C70.1726 11.0159 68.2819 9.0396 65.726 7.98469C64.7307 7.57393 63.8784 6.84109 62.7644 6.64744C62.4502 6.5924 62.1034 6.50475 61.9173 6.24382C61.456 5.59762 60.8443 5.65164 60.2169 5.8718C59.8659 5.99512 59.5306 6.0522 59.4381 5.65673C59.2658 4.91982 58.8023 5.03602 58.2874 5.19298C57.8397 5.32854 57.3856 5.31835 56.9274 5.25719C56.4272 5.19094 55.8996 5.10023 55.4351 5.3051C54.8718 5.55481 54.3883 5.37237 53.846 5.26229C52.9548 5.08086 52.0762 4.55086 51.1924 4.71699C50.3243 4.88007 49.4678 4.86173 48.6291 4.83217C47.5971 4.79649 46.647 4.92492 45.6865 5.26535C44.7448 5.59966 43.7842 5.92072 42.7438 5.75866C42.3697 5.70056 42.0344 5.8086 41.6908 5.96964C40.4632 6.54551 39.1559 6.95423 37.9757 7.63305C37.6162 7.83995 37.2179 7.92761 36.7891 7.90009C35.6982 7.82976 34.8596 8.47596 34.125 9.05693C32.6915 10.1893 31.4293 11.5215 29.6626 12.2145C29.2486 12.3766 28.8198 12.5448 28.5045 12.9066C28.267 13.1787 27.9748 13.3928 28.0147 13.8056C28.124 14.9278 27.318 15.3253 26.4415 15.6769C25.936 15.8787 25.4 16.051 24.9565 16.3486C24.2008 16.8562 23.4694 17.3546 22.5572 17.5972C22.0968 17.7195 21.7017 18.012 21.3822 18.4513C20.7201 19.3625 19.6345 19.9251 18.6865 20.3614C17.644 20.8404 17.4579 21.7975 16.6687 22.3244C17.9277 22.1369 17.9267 22.1359 19.0102 21.0249C19.1353 20.8965 19.2656 20.7609 19.4211 20.6763C19.8667 20.4317 20.3554 20.3338 20.8662 20.3022C21.6113 20.2574 22.3112 20.1014 22.8504 19.5256C23.2802 19.0679 23.894 18.9956 24.4814 18.9181C24.8388 18.8712 25.1992 18.9324 25.5261 18.6878C26.1178 18.2454 26.8534 18.0844 27.5471 17.8999C28.3437 17.6879 28.8923 17.3434 29.3421 16.6248C30.1765 15.2906 31.383 14.4793 33.1192 14.8411C33.4461 14.9094 33.7729 14.8941 34.0577 14.7412C35.3661 14.0349 36.7177 13.3031 37.8085 12.3735C38.7428 11.5775 39.5531 11.7243 40.3918 11.9648C41.3618 12.2441 42.2646 12.3521 43.0885 11.7977C43.6613 11.4114 44.2078 11.4379 44.7805 11.5826C45.884 11.8619 46.9602 11.7732 48.0322 11.4725C49.6265 11.0261 51.2733 10.8936 52.9086 10.702C53.3584 10.649 53.9049 10.544 54.2233 10.8946C54.7351 11.4583 55.144 11.5592 55.6505 10.9313C55.7787 10.7723 56.0331 10.7958 56.1403 10.9385C56.5827 11.5306 56.9957 11.2024 57.4245 10.9405C57.7882 10.7183 58.1707 10.6663 58.6068 10.7366C59.2826 10.8447 59.971 10.8814 60.653 10.9599C61.209 11.0241 61.808 11.1454 62.1296 11.5836C62.7034 12.3634 63.5421 12.661 64.3766 13.0167C65.6261 13.5498 66.9419 13.933 68.1264 14.6128C68.5972 14.8829 69.067 15.205 69.5819 15.3436C71.5661 15.8787 73.6218 16.2049 75.3685 17.377C75.5124 17.4738 75.7048 17.5289 75.8813 17.5493C76.4625 17.6176 76.5613 17.3097 76.4688 16.8694C76.8692 17.2781 77.3611 17.6369 77.6343 18.1139C78.6621 19.9047 80.4372 20.9586 81.8938 22.3254C83.1392 23.4945 84.5296 24.5433 85.4471 25.9998C86.3362 27.4125 86.9951 28.9801 88.5579 29.8903C89.0245 30.1624 89.0644 30.7046 89.2526 31.1521C89.3745 31.4426 89.3209 31.9012 89.8579 31.9043C90.086 31.4263 90.0828 30.9238 89.984 30.4539C89.3524 27.4431 88.6125 24.4669 86.7187 21.9086C86.6399 21.8026 86.5579 21.6874 86.5232 21.5641C86.4749 21.3898 86.4833 21.2033 86.6588 21.084C86.8301 20.9668 87.0414 20.9851 87.1612 21.1146C87.6173 21.6059 88.1028 22.0808 88.2615 22.7668C88.4128 23.4191 88.7218 24.0102 89.0045 24.6198C89.6204 25.9488 90.4275 27.2402 90.6545 28.6835C90.8185 29.7292 91.3513 30.5711 91.6708 31.5873C91.9808 31.2479 91.9955 30.9115 91.8862 30.6516C91.4501 29.6171 91.5447 28.4664 91.0991 27.4359C90.9772 27.1546 90.789 26.7541 90.9015 26.5492C91.3587 25.7195 90.7333 25.267 90.3245 24.7584C89.8936 24.2233 89.6771 23.5975 89.3587 23.0175C88.9572 22.2867 89.4239 21.2613 88.4664 20.7344C88.3172 20.6518 88.4128 20.3063 88.6346 20.1646C88.7996 20.0586 89.0266 20.0495 89.1412 20.1891C89.5405 20.6722 90.1353 21.2022 90.0229 21.7852C89.8716 22.5701 89.6572 23.148 90.7764 23.2438C90.8973 23.254 91.0297 23.4935 91.1012 23.6515C91.5205 24.5851 92.171 25.5004 92.2761 26.4687C92.4558 28.1331 93.8368 29.4204 93.6602 31.149C93.6571 31.1857 93.6907 31.2357 93.7212 31.2662C94.5641 32.1051 94.8825 33.267 95.636 34.167C95.9639 34.5594 96.1983 34.9773 96.8331 34.8122C97.161 34.7276 97.3144 34.9651 97.451 35.2158C98.3317 36.8374 98.9486 38.512 99.1325 40.3752C99.2397 41.4607 98.5976 42.798 99.9281 43.6286C99.9838 43.6633 100.023 43.8172 99.9912 43.8733C99.5781 44.5867 99.9775 45.345 99.8472 46.0748C99.4363 48.3936 99.6286 50.7501 99.3858 53.0872C99.1157 55.6965 98.7868 58.2803 98.2119 60.8437C97.7085 63.0901 96.688 65.1897 96.2939 67.4637C96.1815 68.1139 96.1331 68.7887 95.5488 69.2677C95.2829 69.4858 95.3481 69.8405 95.2766 70.1351C95.1074 70.8241 94.996 71.5284 94.7932 72.2082C94.5651 72.9727 94.5767 73.8981 93.9766 74.4414C93.264 75.0866 93.4637 75.9387 93.1221 76.648C92.6986 77.5307 92.232 78.3981 92.0134 79.3664C91.9608 79.5998 91.7338 79.8403 91.5205 79.9881C90.3161 80.8229 89.9378 82.4893 88.354 82.9337C87.6446 84.0997 86.2416 84.6134 85.5217 85.7723C85.4061 85.9588 85.2547 86.1545 85.0687 86.2646C83.8927 86.9659 82.9805 88.0065 81.8244 88.7067C80.4466 89.5425 79.3473 91.2018 77.3032 90.4038C77.2654 90.3895 77.2097 90.3997 77.1677 90.4139C75.6564 90.9368 73.8824 90.5933 72.553 91.7257C72.5393 91.7379 72.4321 91.6462 72.3323 91.5779C72.6538 91.1539 73.1131 90.8186 73.2834 90.2825C72.6486 89.8799 72.12 89.9665 71.5808 90.4945C70.9271 91.1356 70.1358 91.7267 69.8667 92.5798C69.6586 93.2393 69.1058 93.4228 68.7864 93.2984C67.9771 92.9814 67.6639 93.7479 67.1017 93.8192C66.3166 93.9191 66.0938 94.5205 65.7396 95.0077C65.3056 95.6029 65.0618 96.4448 63.9972 96.0106C63.7985 95.9291 63.6724 96.135 63.5642 96.2664C63.3214 96.561 62.983 96.7312 62.6341 96.8005C61.1396 97.0992 59.6504 97.2337 58.1707 97.8147C56.9285 98.3029 55.4508 98.4272 54.093 98.7789C53.6758 98.8869 53.2638 98.8849 52.8928 98.678C52.4514 98.4313 52.2328 98.4813 51.9249 98.9409C51.2681 99.9235 50.2066 100.022 49.2429 99.3048C49.2061 99.2783 49.1788 99.2406 49.143 99.2131C48.1625 98.4833 47.9691 98.4813 47.1694 99.1743C47.018 99.3048 46.8268 99.3058 46.6544 99.2222C46.3559 99.0775 46.1478 99.0194 45.8126 99.2824C45.3869 99.6157 44.8236 99.5647 44.2782 99.369C43.2924 99.0153 43.2714 99.0276 42.5042 99.9133C42.3518 100.09 42.2887 99.9418 42.2351 99.9072C41.9461 99.7237 41.6277 99.737 41.3072 99.7227C40.8248 99.7013 40.5105 99.5515 40.6776 98.9776C40.7754 98.6403 40.5694 98.4802 40.2226 98.5241C39.5458 98.6097 38.8542 98.5383 38.1869 98.5322C37.4733 98.5251 36.2584 99.1754 36.0913 97.6883C36.0692 97.4906 35.8265 97.4498 35.6446 97.5109C33.466 98.2509 31.7277 97.2724 29.918 96.2807C29.238 95.9077 28.6401 95.1973 27.7604 95.2615C26.7158 95.3379 26.0305 94.7498 25.1509 94.231C25.7058 94.0618 26.3101 94.1933 26.3595 93.5787C26.411 92.9478 25.874 92.9773 25.4221 92.8673C24.4016 92.6196 23.2108 92.6257 22.7705 91.372C22.7264 91.2477 22.4552 91.21 22.3102 91.105C22.0201 90.894 21.6618 90.7146 21.4799 90.4323C20.8378 89.4345 19.8772 89.0604 18.7422 88.9503C17.1542 88.7964 14.6729 86.7355 14.2778 85.2627C14.2315 85.0915 14.1191 84.9212 14.2158 84.7521C14.55 84.167 14.0487 84.0141 13.7061 83.743C12.7413 82.9786 11.312 82.5219 11.6021 80.8881C11.6346 80.7057 11.5348 80.6384 11.4013 80.619C9.98569 80.4131 10.3115 79.2125 10.0845 78.3634C10.0267 78.1463 10.1002 77.9272 9.81228 77.9527C8.9505 78.0271 8.61105 77.3269 8.50385 76.8254C8.2821 75.7919 7.52332 75.162 6.96001 74.3833C6.83495 74.21 6.62685 74.0918 6.54173 73.8727C5.71988 71.771 4.4146 69.8589 3.95114 67.6145C3.83553 67.0529 3.70416 66.4658 3.42986 65.9684C2.21076 63.7577 1.98691 61.2768 1.34058 58.9132C1.02529 57.7604 1.05997 56.5251 0.788826 55.3713C0.28437 53.2228 0.267555 51.0426 0.213959 48.8808C0.184532 47.8116 -0.136009 46.7557 0.0668259 45.6651ZM27.8928 13.5834C27.2717 13.3857 27.0552 13.6507 26.7168 13.932C27.2465 14.2 27.4924 13.9554 27.8928 13.5834ZM88.5179 31.7636C88.6262 31.7025 88.7607 31.6189 88.6798 31.4782C88.6083 31.357 88.4622 31.3702 88.3403 31.4273C88.2247 31.4823 88.1112 31.5486 88.1795 31.7076C88.2762 31.8166 88.396 31.8329 88.5179 31.7636ZM85.5868 30.7413C86.2195 30.8871 86.0577 30.2806 86.4192 29.8943C85.8885 29.9463 85.4796 29.8413 85.3315 30.3245C85.2978 30.4345 85.467 30.7138 85.5868 30.7413ZM84.7934 28.395C85.1002 28.5326 85.1139 28.5153 85.5238 27.6245C85.0519 27.5725 84.6715 27.6602 84.6284 28.2105C84.6231 28.2697 84.7209 28.3634 84.7934 28.395ZM66.5205 18.5033C66.0318 18.3137 65.4328 18.7652 64.9893 19.0955C64.7948 19.2402 65.0481 19.5032 65.2667 19.5776C65.9519 19.811 66.6245 20.1096 67.3613 20.1412C67.9897 20.1687 68.6108 20.1932 69.1899 20.5316C68.7264 19.2932 67.5694 18.91 66.5205 18.5033ZM76.8209 26.1884C76.8566 26.1303 76.9407 26.0498 76.9239 26.0059C76.8503 25.8174 76.7452 25.6329 76.4856 25.7002C76.4551 25.7083 76.4278 25.8469 76.4499 25.9071C76.5077 26.0691 76.6117 26.1986 76.8209 26.1884ZM71.6691 53.1005C71.7038 53.075 71.7532 53.0566 71.7668 53.023C71.8646 52.7886 72.0832 52.5613 71.9234 52.2973C71.8478 52.1719 71.6807 52.2504 71.5892 52.3462C71.3265 52.6224 71.3086 52.8824 71.6691 53.1005ZM71.8719 27.1648C72.0233 27.1454 72.1105 27.0557 72.12 26.9151C72.141 26.5889 71.6681 26.1048 71.3706 26.1609C71.1647 26.1996 71.0995 26.379 71.13 26.5553C71.1857 26.8896 71.5756 27.1944 71.8719 27.1648ZM65.0534 23.5281C66.9178 23.5363 68.7349 23.8879 70.5456 24.2875C71.2382 24.4404 71.8824 24.5698 72.0958 25.3699C72.1452 25.5554 72.3617 25.7837 72.5487 25.8378C73.6386 26.1527 74.2723 27.0537 75.0637 27.7101C75.4788 27.4604 74.8997 27.071 75.298 26.8764C75.9234 26.8478 75.6711 27.7896 76.4961 27.7366C75.8424 26.4809 75.339 25.2415 74.1157 24.4526C73.9265 24.3313 73.7405 24.1998 73.5755 24.051C70.6844 21.4458 67.0533 20.6946 63.3225 20.1911C63.1869 20.1728 63.0492 20.1616 62.9126 20.1657C62.4754 20.1769 62.3199 20.3879 62.2442 20.8221C62.0203 22.1043 63.7796 23.522 65.0534 23.5281ZM44.8657 13.9401C44.5599 13.9625 44.3854 14.2 44.3707 14.4813C44.3528 14.8248 44.6208 14.9074 44.9109 14.9257C45.2262 14.8839 45.4426 14.7402 45.4069 14.4141C45.3733 14.1215 45.1747 13.9177 44.8657 13.9401ZM55.537 14.7209C55.7483 14.7056 55.9921 14.6617 56.2391 14.251C54.4714 13.827 52.7972 13.7393 51.123 13.7088C50.8183 13.7037 50.5061 13.8188 50.1814 13.7444C49.9502 13.6914 49.7127 13.7179 49.6013 13.9646C49.4793 14.2357 49.5613 14.4803 49.7536 14.7015C49.9796 14.9604 50.2718 15.0684 50.607 15.048C52.2507 14.9461 53.8944 14.8422 55.537 14.7209ZM41.1033 97.9105C41.2704 97.9135 41.4785 97.9207 41.4806 97.6781C41.4827 97.4936 41.3807 97.3631 41.1789 97.3275C41.0013 97.3479 40.8216 97.3835 40.7995 97.5915C40.7775 97.7923 40.9057 97.9064 41.1033 97.9105ZM37.4302 21.1553C38.231 20.7935 38.8711 21.245 39.4796 21.5967C40.7733 22.3438 41.9871 22.3468 43.3313 21.6527C44.4684 21.0657 45.573 20.4633 46.543 19.6387C47.2061 19.0751 47.9754 18.6816 48.792 18.3799C50.4946 17.7511 52.0773 16.8939 53.6422 15.9582C52.2223 15.8257 50.9875 16.4393 49.6916 16.7746C49.1252 16.9214 48.6039 17.3016 48.1289 16.5922C48.007 16.4087 47.5719 16.3272 47.4657 16.6737C47.0758 17.9407 45.9902 17.9091 44.9624 17.9906C44.7879 18.0038 44.4758 17.8693 44.4474 17.9192C43.9198 18.8631 42.7533 18.4228 42.0607 18.9752C41.7002 19.2636 41.4627 19.1627 41.3818 18.755C41.2567 18.1241 40.8805 18.2423 40.478 18.4401C40.2751 18.54 40.0176 18.6388 39.9168 18.8111C39.3944 19.6978 38.5284 20.0321 37.5878 20.2819C37.426 20.3247 37.2705 20.449 37.1507 20.5723C37.0287 20.6977 36.9468 20.87 37.0708 21.0483C37.158 21.1737 37.3051 21.2124 37.4302 21.1553ZM35.6636 27.2739C35.9273 27.3309 36.106 27.1638 36.1701 26.9365C36.2384 26.6939 36.0944 26.4799 35.8716 26.4095C35.5374 26.3035 35.425 26.6063 35.2726 26.7469C35.2579 27.0782 35.4302 27.2239 35.6636 27.2739ZM28.7746 69.0129C28.9364 68.9405 29.0741 68.8162 29.0037 68.6195C28.9879 68.5767 28.846 68.5481 28.7683 68.5583C28.5812 68.5838 28.4299 68.6643 28.454 68.8896C28.5266 69.018 28.6495 69.069 28.7746 69.0129ZM28.6001 29.2298C31.2222 27.9833 33.8423 26.7326 36.4528 25.4637C36.787 25.3016 37.364 25.1895 37.1874 24.6779C37.0477 24.2752 36.5306 24.2946 36.1197 24.2416C34.1922 23.9929 32.5328 24.4964 31.1602 25.85C30.9007 26.1048 30.6001 26.3066 30.2365 26.3963C29.7215 26.5237 29.3967 26.8855 29.0436 27.1862C29.2065 27.5389 29.6279 27.2892 29.7751 27.6856C29.4861 28.0026 29.0279 28.0271 28.6232 28.1372C28.5055 28.1688 28.2995 28.0281 28.2333 28.0821C27.9096 28.3451 27.318 28.4175 27.3758 28.974C27.422 29.4245 27.9559 29.5356 28.6001 29.2298ZM27.4703 67.3077C27.4588 67.1008 27.2948 67.0274 27.1099 67.0417C26.9028 67.058 26.8429 67.2211 26.8135 67.3943C26.8345 67.6145 26.9922 67.6665 27.1761 67.6492C27.3768 67.6308 27.4809 67.4932 27.4703 67.3077ZM26.742 70.5214C26.8513 70.4867 26.9859 70.3797 27.0121 70.2798C27.0468 70.1473 26.9323 70.0444 26.7294 70.0372C26.6653 70.1127 26.5455 70.1973 26.515 70.3063C26.4741 70.4541 26.5854 70.5703 26.742 70.5214ZM26.0621 69.7753C26.2008 69.7304 26.2544 69.6092 26.1577 69.4899C26.1241 69.4491 25.9833 69.44 25.9349 69.4746C25.8813 69.5123 25.8782 69.6163 25.8529 69.6917C25.9233 69.7223 26.0085 69.7926 26.0621 69.7753ZM17.563 23.7646C17.4012 23.8879 17.3917 24.0663 17.5294 24.2182C17.6545 24.3558 17.8867 24.4628 17.9981 24.3374C18.3334 23.9572 18.9829 23.8227 18.9881 23.046C18.3071 23.0053 17.9698 23.4548 17.563 23.7646ZM24.3848 73.0185C24.7568 73.0124 24.7473 72.6883 24.7547 72.4284C24.7631 72.1603 24.7473 71.8138 24.4226 71.7924C23.978 71.7628 24.0716 72.2103 23.9612 72.4477C23.935 72.7759 24.0506 73.0236 24.3848 73.0185ZM22.5771 67.3699C22.6255 67.5625 22.7663 67.696 22.9565 67.6838C23.2214 67.6675 23.3874 67.4606 23.337 67.2272C23.2172 66.6727 23.1142 66.107 22.8052 65.6066C22.6885 65.419 22.6013 65.2142 22.4615 64.94C22.6381 64.8034 22.9019 64.7005 22.9628 64.5303C23.0994 64.1501 23.1236 63.6619 22.6812 63.4927C22.2419 63.3245 21.8677 63.4509 21.6491 64.0227C21.1468 65.3324 21.0774 65.3395 22.1988 66.2905C22.5824 66.6156 22.4836 67.0009 22.5771 67.3699ZM21.7027 68.1149C21.9213 68.0497 21.9707 67.8897 21.9423 67.7052C21.9129 67.5126 21.7721 67.3862 21.5808 67.3811C21.378 67.375 21.2372 67.5085 21.2634 67.7113C21.2929 67.9498 21.4473 68.0976 21.7027 68.1149ZM17.8111 62.9219C18.264 63.0422 18.7632 62.9209 19.1931 63.2236C19.3076 63.3041 19.5725 63.1074 19.5861 62.9372C19.6902 61.6937 20.5341 61.3818 21.6292 61.3502C21.8425 61.3441 22.1347 61.3574 22.1473 61.0648C22.1578 60.8274 21.9676 60.6602 21.7101 60.6531C21.44 60.6459 21.2424 60.6449 21.0259 60.3809C20.5446 59.7959 19.9697 59.7633 19.5168 60.3106C19.191 60.704 18.883 60.9823 18.3607 61.1097C17.6387 61.286 17.9162 62.1065 17.5315 62.451C17.5073 62.7303 17.6408 62.8771 17.8111 62.9219ZM17.6902 60.6765C18.016 60.8467 18.3187 60.7264 18.5741 60.5195C18.8589 60.2882 18.7338 60.0833 18.5152 59.8591C18.2672 59.6053 18.3355 59.3046 18.6918 59.2852C19.646 59.2333 19.7753 58.1182 20.6245 57.9409C20.7811 57.9082 20.8094 57.6392 20.76 57.4649C20.6255 56.9889 20.6518 56.5017 20.6108 56.0196C20.5719 55.5732 20.4216 55.0798 19.9172 54.9779C19.3854 54.8709 18.9366 55.1237 18.7296 55.6567C18.6823 55.778 18.6634 55.9085 18.6319 56.0359C17.6576 56.6046 17.2951 57.4058 17.6755 58.4821C17.8531 58.9835 17.7133 59.4412 17.4884 59.8876C17.3245 60.2107 17.3392 60.492 17.6902 60.6765ZM5.88173 45.2085C5.96371 45.129 6.02676 45.0301 6.09613 44.9374C6.02782 44.8996 5.95425 44.8242 5.89014 44.8313C5.75142 44.8466 5.67574 44.9445 5.69676 45.0913C5.75982 45.132 5.87122 45.2187 5.88173 45.2085Z" fill="#FF6666"/>
<path d="M18.63 56.0426C18.63 56.0405 18.6311 56.0374 18.6321 56.0353C18.6425 56.0291 18.6488 56.0208 18.6592 56.0145L18.63 56.0426Z" fill="#FF6666"/>
<path d="M79.6502 9.25673C79.3108 9.28935 78.5184 8.66455 78.4879 8.34043C78.5446 8.09683 78.7548 7.98166 78.9755 7.95822C79.3791 7.91439 80.1747 8.56671 80.1431 8.90204C80.1179 9.1701 79.8835 9.23431 79.6502 9.25673Z" fill="#FF6666"/>
<path d="M81.9991 11.5133C81.7112 11.2177 81.4915 10.859 81.1951 10.4635C81.8478 10.2923 82.1915 10.6582 82.553 10.9619C82.7222 11.1036 82.9124 11.2952 82.7201 11.5052C82.5151 11.7284 82.1946 11.7141 81.9991 11.5133Z" fill="#FF6666"/>
<path d="M77.0439 6.40281C76.468 6.27337 75.9961 6.1796 75.5306 6.05831C75.0703 5.93906 75.0461 5.62105 75.1606 5.25616C75.8238 5.48855 76.5426 5.63125 77.0439 6.40281Z" fill="#FF6666"/>
<path d="M75.1388 5.24963L75.1689 5.21948C75.1648 5.23196 75.1637 5.24443 75.1606 5.25691C75.1544 5.25483 75.1461 5.25275 75.1388 5.24963Z" fill="#FF6666"/>
<path d="M88.2111 19.3686C87.8391 19.3625 87.6279 19.1933 87.6541 18.8091C87.7088 18.5899 87.796 18.3392 88.0535 18.3667C88.4739 18.4126 88.6252 18.7448 88.6136 19.1128C88.6084 19.3095 88.3993 19.3717 88.2111 19.3686Z" fill="#FF6666"/>
<path d="M74.103 13.9391C73.2602 13.617 72.9007 13.1207 72.6506 12.5377C73.1866 12.8608 73.6532 13.2583 74.103 13.9391Z" fill="#FF6666"/>
<path d="M72.5864 12.4948L72.6165 12.4653C72.6269 12.4908 72.6405 12.5122 72.6509 12.5376C72.629 12.5244 72.6093 12.5081 72.5864 12.4948Z" fill="#FF6666"/>
<path d="M83.9841 13.3867C83.7865 13.4142 83.5858 13.4275 83.6247 13.1706C83.6573 12.9535 83.7907 12.7497 84.0419 12.7466C84.2857 12.7436 84.4802 12.9362 84.477 13.1441C84.4718 13.4448 84.1439 13.3072 83.9841 13.3867Z" fill="#FF6666"/>
<path d="M76.4604 16.8062L76.4355 16.8368C76.4292 16.8062 76.4126 16.7828 76.4053 16.7532C76.423 16.7716 76.4428 16.7889 76.4604 16.8062Z" fill="#FF6666"/>
<path d="M75.4317 15.5383C75.8195 15.8971 76.263 16.2202 76.4038 16.7533C76.0297 16.3853 75.5778 16.0734 75.4317 15.5383Z" fill="#FF6666"/>
<path d="M76.6098 7.02864C76.9062 6.90429 77.0985 7.05514 77.2541 7.26408C77.273 7.28956 77.19 7.44245 77.1542 7.44245C76.8715 7.44143 76.6929 7.29364 76.6098 7.02864Z" fill="#FF6666"/>
<path d="M86.3688 16.2406C86.3195 16.1335 86.0178 16.2895 86.0756 16.0163C86.0872 15.9613 86.3047 15.9073 86.4172 15.9226C86.5223 15.9368 86.6915 16.0408 86.6946 16.1111C86.701 16.2671 86.5402 16.2579 86.3688 16.2406Z" fill="#FF6666"/>
<path d="M51.1812 6.68825C51.3147 6.67093 51.4492 6.6587 51.5837 6.64545C51.5847 6.67704 51.59 6.73514 51.5858 6.73616C51.4523 6.75553 51.3189 6.76878 51.1812 6.78304C51.1812 6.74228 51.178 6.68927 51.1812 6.68825Z" fill="#FF6666"/>
<path d="M85.1855 14.3366C85.1435 14.2908 85.0636 14.2388 85.0374 14.1685C85.0006 14.0716 85.072 14.0003 85.1698 14.0349C85.2423 14.0614 85.3211 14.1308 85.3484 14.2001C85.3873 14.2938 85.3201 14.3479 85.1855 14.3366Z" fill="#FF6666"/>
<path d="M18.6313 56.0416L18.6583 56.0145C18.6656 56.0228 18.6729 56.0312 18.6802 56.0395C18.6635 56.0405 18.6479 56.0405 18.6313 56.0416Z" fill="#FF6666"/>
<path d="M19.4684 56.1786C19.4915 56.2306 19.441 56.358 19.3864 56.3926C19.1342 56.5537 18.9818 56.3712 18.8315 56.2102C18.7789 56.1541 18.7306 56.096 18.6802 56.0379C18.7527 56.0328 18.8252 56.0257 18.8977 56.0267C19.1026 56.0328 19.3496 55.9126 19.4684 56.1786Z" fill="#FF6666"/>
</svg>
