<svg width="30" height="30" viewBox="0 0 30 30" fill="none" xmlns="http://www.w3.org/2000/svg">
<path d="M15 30C23.2842 30 30 23.2842 30 15C30 6.71572 23.2842 0 15 0C6.71572 0 0 6.71572 0 15C0 23.2842 6.71572 30 15 30Z" fill="#1977F3"/>
<path d="M20.8396 19.337L21.5041 15.0001H17.3443V12.1861C17.3443 11.0006 17.9244 9.84258 19.7891 9.84258H21.6813V6.15112C21.6813 6.15112 19.9642 5.85791 18.3231 5.85791C14.8974 5.85791 12.6572 7.93357 12.6572 11.6946V15.0001H8.84766V19.337H12.6572V29.8187C13.4208 29.9389 14.2034 30.0001 15.0008 30.0001C15.7981 30.0001 16.5807 29.9368 17.3443 29.8187V19.337H20.8396Z" fill="white"/>
</svg>
