<svg width="424" height="418" viewBox="0 0 424 418" fill="none" xmlns="http://www.w3.org/2000/svg">
<path d="M413.423 59.315C387.466 1.59386 312.436 16.3163 268.1 11.4088C192.123 2.99599 112.735 -14.0633 39.6003 22.3922C29.9373 27.2996 20.6532 33.1418 13.4534 42.4894C-10.9881 73.8037 5.11691 154.426 6.25372 193.92C7.39054 229.44 8.3377 264.961 8.90611 300.482C9.28504 321.28 1.32734 377.833 16.4849 393.023C20.6532 396.995 26.1479 397.93 31.2636 398.865C140.777 415.457 247.258 422.935 357.34 414.522C395.992 409.614 420.244 396.528 420.812 344.182C421.381 292.77 422.139 241.359 422.896 189.713C423.275 165.643 424.412 141.34 423.844 117.27C423.465 97.8736 413.423 76.608 413.423 59.315ZM373.256 354.464C372.687 354.698 372.119 354.698 371.55 354.931C372.119 354.23 372.687 353.529 373.256 352.594C373.256 353.062 373.256 353.763 373.256 354.464Z" fill="white"/>
</svg>
