<svg width="20" height="15" viewBox="0 0 20 15" fill="none" xmlns="http://www.w3.org/2000/svg">
<g clip-path="url(#clip0_168_4)">
<path d="M6.67224 8.63479C8.67672 8.85885 20.5918 10.5721 19.9769 6.93857C19.6353 4.91843 15.3406 5.37275 13.9787 5.20613C11.9779 4.96138 9.82227 5.06228 7.85662 4.60951C8.54543 3.30862 11.3127 2.47862 11.5212 1.08408C11.8508 -1.11924 8.81263 0.650973 8.13908 1.05304C6.40134 2.0895 4.70889 3.20099 2.97254 4.24263C1.7054 5.00277 -0.281515 5.92022 0.0333045 7.9207C0.319462 9.74059 2.78439 10.9111 4.02286 11.8089C5.54564 12.9131 7.36428 14.2078 9.11266 14.8199C11.1153 15.5211 11.9812 14.0551 10.5213 12.4386C9.24441 11.0249 7.44657 10.2684 6.17805 8.8485C6.49703 8.66946 6.92187 8.74656 7.26997 8.74656C7.28431 8.58926 6.04306 8.68033 6.01579 8.62393C5.99776 8.58667 7.02404 8.6648 6.67224 8.63479C6.05046 8.58253 8.06604 8.79055 6.67224 8.63479Z" fill="white"/>
</g>
<defs>
<clipPath id="clip0_168_4">
<rect width="15" height="20" fill="white" transform="matrix(4.37114e-08 -1 -1 -4.37114e-08 20 15)"/>
</clipPath>
</defs>
</svg>
