<svg width="50" height="50" viewBox="0 0 50 50" fill="none" xmlns="http://www.w3.org/2000/svg">
<g clip-path="url(#clip0_329_7776)">
<path d="M27.0835 6.25V2.08333C27.0835 1.5308 26.864 1.0009 26.4733 0.610194C26.0826 0.219493 25.5527 0 25.0002 0C24.4476 0 23.9177 0.219493 23.527 0.610194C23.1363 1.0009 22.9168 1.5308 22.9168 2.08333V6.25C19.0504 6.25441 15.3437 7.79228 12.6097 10.5262C9.87578 13.2602 8.33791 16.9669 8.3335 20.8333V33.3333C8.3335 37.7536 10.0894 41.9928 13.215 45.1184C16.3407 48.2441 20.5799 50 25.0002 50C29.4204 50 33.6597 48.2441 36.7853 45.1184C39.9109 41.9928 41.6668 37.7536 41.6668 33.3333V20.8333C41.6624 16.9669 40.1245 13.2602 37.3906 10.5262C34.6566 7.79228 30.9499 6.25441 27.0835 6.25ZM37.5002 33.3333C37.5002 36.6485 36.1832 39.828 33.839 42.1722C31.4948 44.5164 28.3154 45.8333 25.0002 45.8333C21.685 45.8333 18.5055 44.5164 16.1613 42.1722C13.8171 39.828 12.5002 36.6485 12.5002 33.3333V20.8333C12.5035 18.0717 13.602 15.4241 15.5548 13.4713C17.5076 11.5185 20.1552 10.42 22.9168 10.4167H27.0835C29.8452 10.42 32.4928 11.5185 34.4455 13.4713C36.3983 15.4241 37.4969 18.0717 37.5002 20.8333V33.3333Z" fill="white"/>
<path d="M24.9998 14.5833C24.4473 14.5833 23.9174 14.8027 23.5267 15.1934C23.136 15.5841 22.9165 16.1141 22.9165 16.6666V20.8333C22.9165 21.3858 23.136 21.9157 23.5267 22.3064C23.9174 22.6971 24.4473 22.9166 24.9998 22.9166C25.5524 22.9166 26.0823 22.6971 26.473 22.3064C26.8637 21.9157 27.0832 21.3858 27.0832 20.8333V16.6666C27.0832 16.1141 26.8637 15.5841 26.473 15.1934C26.0823 14.8027 25.5524 14.5833 24.9998 14.5833Z" fill="white"/>
</g>
<defs>
<clipPath id="clip0_329_7776">
<rect width="50" height="50" fill="white"/>
</clipPath>
</defs>
</svg>
