<svg width="20" height="15" viewBox="0 0 20 15" fill="none" xmlns="http://www.w3.org/2000/svg">
<g clip-path="url(#clip0_167_8)">
<path d="M13.3278 8.63479C11.3233 8.85885 -0.591751 10.5721 0.0230925 6.93857C0.364724 4.91843 4.65939 5.37275 6.02129 5.20613C8.02208 4.96138 10.1777 5.06228 12.1434 4.60951C11.4546 3.30862 8.68731 2.47862 8.47882 1.08408C8.1492 -1.11924 11.1874 0.650973 11.8609 1.05304C13.5987 2.0895 15.2911 3.20099 17.0275 4.24263C18.2946 5.00277 20.2815 5.92022 19.9667 7.9207C19.6805 9.74059 17.2156 10.9111 15.9771 11.8089C14.4544 12.9131 12.6357 14.2078 10.8873 14.8199C8.88471 15.5211 8.01884 14.0551 9.47875 12.4386C10.7556 11.0249 12.5534 10.2684 13.822 8.8485C13.503 8.66946 13.0781 8.74656 12.73 8.74656C12.7157 8.58926 13.9569 8.68033 13.9842 8.62393C14.0022 8.58667 12.976 8.6648 13.3278 8.63479C13.9495 8.58253 11.934 8.79055 13.3278 8.63479Z" fill="white"/>
</g>
<defs>
<clipPath id="clip0_167_8">
<rect width="15" height="20" fill="white" transform="translate(0 15) rotate(-90)"/>
</clipPath>
</defs>
</svg>
