<svg width="32" height="38" viewBox="0 0 32 38" fill="none" xmlns="http://www.w3.org/2000/svg">
<path d="M7.74115 11.7304C2.50017 15.7948 2.11302 22.9527 5.60926 28.3167C7.10072 30.6053 10.2603 32.0053 12.8299 32.4759C16.1148 33.0775 19.3027 32.2024 21.9947 30.2647C22.0125 30.2522 22.0262 30.2378 22.0412 30.2239C22.0553 30.2146 22.0697 30.2075 22.0833 30.1967C24.6447 28.1639 26.3047 25.7982 26.5907 22.4808C26.8931 18.9754 25.9526 16.0615 23.7819 13.3232C20.0023 8.55532 12.3887 8.12594 7.74115 11.7304ZM25.7699 21.843C25.681 25.0556 23.9523 27.5871 21.5168 29.5371C16.6568 33.0098 10.7997 32.1827 6.59711 28.1366C5.67567 27.2493 5.14106 25.5002 4.73072 24.3562C4.22645 22.9496 4.06394 21.4572 4.11373 19.9733C4.20596 17.2252 5.88297 14.4356 7.91358 12.6933C12.2038 9.01189 18.8579 9.55156 22.7716 13.4983C25.005 15.7502 25.8561 18.7452 25.7699 21.843Z" fill="#B250FE"/>
<path d="M29.3686 6.92908C29.9286 5.91199 29.8421 4.61574 28.8575 3.90708C27.8319 3.16887 26.5322 3.48652 25.7477 4.33966C24.5729 3.82157 23.3064 3.57471 21.9814 3.80117C19.9198 4.15341 19.149 5.74934 19.5862 7.40887C17.8963 6.89542 16.0987 6.70341 14.3126 6.81272C15.2655 5.47215 15.1963 3.84635 13.5403 2.75707C12.2532 1.9108 10.8265 1.75978 9.40154 1.95486C8.96092 1.06459 8.13578 0.369986 7.04441 0.574608C5.63165 0.839179 4.92244 2.00108 5.17868 3.34911C3.66943 4.19917 2.3747 5.54935 2.33627 7.37474C2.28806 9.66998 3.63974 10.2366 5.54665 10.2363C2.8433 12.5884 1.11406 15.6712 0.651043 19.2607C0.521183 20.2675 0.784319 21.3101 0.831022 22.3162C0.878249 23.3346 0.983084 24.193 1.27473 25.1811C1.77643 26.8815 2.8368 28.5959 3.84435 30.043C3.84658 30.0461 3.84914 30.0491 3.85118 30.0522C2.94564 31.3049 1.12575 33.6717 2.77216 34.8368C3.40149 35.2822 4.27656 34.6376 4.82207 34.352C5.59868 33.9454 6.37239 33.5228 7.1168 33.0588C8.88788 34.1671 10.9442 34.8934 12.8634 35.1119C14.9185 35.3459 16.9459 35.1838 18.8689 34.6485C19.4549 35.3302 20.0909 35.9703 20.7283 36.6043C21.2346 37.1079 21.7601 37.826 22.5463 37.7658C24.6623 37.6043 23.4255 34.0928 22.9883 32.8157C23.1707 32.7002 23.3513 32.5817 23.5299 32.4577C29.8319 28.0852 30.5709 19.6463 27.003 13.3782C27.0365 13.3884 27.0694 13.3966 27.1032 13.4062C27.1183 13.4109 27.1333 13.4147 27.1487 13.4191C28.915 13.9186 30.3242 13.7242 30.9321 11.5824C31.4346 9.81335 30.5611 8.19265 29.3686 6.92908ZM28.2543 4.56501C28.9256 4.87926 28.9451 5.66683 28.7035 6.28482C28.5855 6.18028 28.4668 6.07817 28.3473 5.98076C27.7915 5.52693 27.1992 5.10808 26.5766 4.75669C27.047 4.35816 27.5961 4.25703 28.2543 4.56501ZM24.2314 4.70798C25.6769 5.01923 27.047 6.04104 28.1644 6.9536C29.1821 7.78438 30.1059 9.15895 30.1825 10.4685C30.1982 10.7362 30.1637 11.1114 30.0706 11.4845C29.4966 10.1311 27.395 8.49566 26.8312 8.05915C26.0696 7.47006 23.1063 5.12651 21.2664 5.07781C22.0666 4.61097 23.2396 4.49453 24.2314 4.70798ZM21.3707 6.32502C20.9578 6.17015 20.6325 6.13027 20.3789 6.17218C20.398 6.14904 20.4162 6.12419 20.4282 6.09183C21.0258 4.46512 25.1661 7.46744 25.8185 7.94448C26.3238 8.31385 31.1144 11.9364 29.1787 12.6464C29.0942 12.6773 29.0442 12.7369 29.0196 12.8043C29.0723 11.458 27.2465 10.156 26.3713 9.42594C24.8805 8.18245 23.1993 7.01185 21.3707 6.32502ZM20.656 7.78641C20.1562 6.36889 22.8267 7.99652 23.1527 8.19225C23.3413 8.30561 23.5257 8.42616 23.71 8.54639C23.5376 8.74179 23.3707 8.94171 23.2068 9.14424C22.4097 8.59339 21.5527 8.14257 20.656 7.78641ZM24.1583 9.36122C24.2499 9.25394 24.344 9.14875 24.4371 9.04251C24.5787 9.14398 24.7193 9.24609 24.8585 9.35063C24.6694 9.56349 24.4856 9.78066 24.306 10.0013C24.1736 9.88559 24.0392 9.77288 23.9027 9.66357C23.9871 9.56205 24.0727 9.46163 24.1583 9.36122ZM25.2233 10.2608C25.3311 10.1348 25.4412 10.0105 25.5507 9.88591C25.722 10.0232 25.8935 10.16 26.0614 10.3003C26.7754 10.8956 27.4914 11.5554 27.9936 12.342C28.4917 13.1227 26.8089 12.406 26.2417 12.1693C25.8455 11.5983 25.408 11.0757 24.9375 10.5979C25.0319 10.4845 25.1274 10.3725 25.2233 10.2608ZM13.9631 4.99472C13.9755 5.03629 13.9948 5.06964 14.0186 5.09657C14.02 5.13573 14.022 5.1745 14.0203 5.2147C13.9 5.17077 13.7599 5.13704 13.586 5.12278C11.6202 4.95935 9.52923 5.76836 7.73451 6.46538C6.44083 6.96798 4.5927 7.61924 3.87358 8.90732C3.86418 8.92406 3.85801 8.93935 3.8496 8.9557C3.84362 8.9455 3.84277 8.93524 3.83469 8.92464C2.57366 7.26956 7.42861 5.65833 8.2079 5.36552C8.96243 5.08186 9.75046 4.86671 10.5192 4.62463C11.1792 4.41674 13.6549 3.95604 13.9631 4.99472ZM6.76427 9.29924C6.08343 9.35474 4.11497 9.53825 5.28391 8.67001C6.05861 8.09458 7.00185 7.70194 7.89117 7.33768C8.03436 7.69279 8.16895 8.05098 8.31707 8.40413C7.78134 8.67106 7.26203 8.96825 6.76427 9.29924ZM9.1053 8.03908C8.9623 7.70404 8.83296 7.36284 8.6987 7.02375C8.86121 6.96491 9.02562 6.91071 9.18944 6.85521C9.33618 7.1794 9.48483 7.50249 9.63558 7.82459C9.4575 7.89297 9.28068 7.96416 9.1053 8.03908ZM10.4611 7.53341C10.3145 7.21915 10.1691 6.90457 10.0248 6.58927C10.3282 6.49866 10.6327 6.41119 10.9384 6.32947C11.3793 6.2116 14.1881 5.47515 13.222 6.75336C13.1912 6.78435 13.1632 6.81527 13.1303 6.84665C13.0988 6.87659 13.0753 6.90823 13.0554 6.94033C12.176 7.06493 11.3066 7.26276 10.4611 7.53341ZM7.3624 1.42141C7.89333 1.39702 8.26846 1.70879 8.51117 2.11856C7.76485 2.28984 7.02727 2.5365 6.31911 2.81062C6.21461 2.85115 6.10991 2.89488 6.0054 2.93999C5.9543 2.12882 6.44825 1.46331 7.3624 1.42141ZM3.3898 6.48944C3.72591 5.17312 5.05828 4.35136 6.18879 3.80876C7.45081 3.20299 8.92039 2.81251 10.3155 2.72615C11.4539 2.65568 12.8393 3.15704 13.5505 3.98272C13.2816 3.92022 12.9754 3.90675 12.6496 3.89093C10.9161 3.80699 9.25703 4.41425 7.65641 5.01577C6.73405 5.36238 4.00777 6.35595 3.25771 7.67161C3.23827 7.28453 3.2916 6.87424 3.3898 6.48944ZM3.80224 33.8977C3.35407 34.1255 2.82688 33.8446 3.033 33.2903C3.17823 32.8997 3.38245 32.5276 3.57812 32.1609C3.83213 31.6842 4.11642 31.2228 4.41785 30.7741C4.76453 31.1783 5.14604 31.562 5.56084 31.9188C5.45259 32.0002 5.34979 32.089 5.25126 32.162C4.91699 32.4092 4.55539 32.6322 4.28858 32.955C4.25626 32.9941 4.27439 33.0602 4.33219 33.0595C4.76841 33.0544 5.14945 32.8236 5.50323 32.591C5.64709 32.4967 5.82963 32.3905 5.97978 32.2604C6.09289 32.3492 6.20797 32.4361 6.32463 32.5211C5.50389 33.0145 4.65412 33.465 3.80224 33.8977ZM22.6567 34.9741C22.745 35.3816 22.8062 35.7936 22.8468 36.208C22.903 36.7831 22.2981 36.8988 21.9447 36.5676C21.1975 35.8668 20.4668 35.1334 19.7839 34.3666C19.9717 34.3012 20.1578 34.2304 20.3433 34.1579C20.4336 34.321 20.5633 34.4691 20.6807 34.6148C20.9571 34.957 21.2889 35.2318 21.642 35.4916C21.695 35.5308 21.7532 35.4575 21.7261 35.4078C21.5229 35.0319 21.3419 34.6478 21.0892 34.3012C21.004 34.1848 20.9184 34.0646 20.822 33.9591C21.2927 33.7561 21.7549 33.53 22.2072 33.2788C22.3793 33.8378 22.5325 34.4014 22.6567 34.9741ZM23.0878 31.7049C18.6584 35.05 12.016 35.208 7.40897 32.1796C7.3802 32.1537 7.34841 32.133 7.31425 32.1163C6.15707 31.34 5.12968 30.3634 4.3052 29.1792C3.43828 27.9336 2.60079 26.3735 2.11925 24.9496C1.58673 23.3752 1.61071 21.5512 1.50193 19.8991C1.25929 16.2167 4.01092 12.5356 6.75435 10.3636C12.2808 6.36686 20.2089 6.70805 24.8907 11.8634C27.1664 14.3698 28.3786 18.4162 28.3819 21.7265C28.3857 25.5935 26.1179 29.4168 23.0878 31.7049Z" fill="#B250FE"/>
<path d="M19.1777 16.2341C17.8804 17.2651 16.5992 18.3186 15.3276 19.3809C15.2302 19.3619 15.1308 19.352 15.0307 19.349C14.6471 18.7572 14.2702 18.1613 13.8961 17.5634C13.6513 17.1722 13.4096 16.6004 13.0591 16.2875C12.5147 15.8016 11.7009 15.3097 11.0328 15.8051C10.4269 16.2541 10.6301 17.1602 10.9105 17.7571C11.0966 18.1531 11.4832 18.4949 11.7688 18.8197C12.2899 19.4119 12.811 20.0039 13.324 20.6036C13.2318 21.005 13.2907 21.4388 13.5066 21.8395C13.946 22.6553 14.9723 22.7926 15.7497 22.4306C16.3139 22.1678 16.551 21.6414 16.5613 21.0908C17.9102 20.2117 19.2496 19.3175 20.5804 18.4125C21.2721 17.942 22.45 16.8891 21.7753 15.9838C21.1162 15.0993 19.874 15.6815 19.1777 16.2341ZM11.7214 17.4282C11.6508 17.3421 11.4462 16.5787 11.4748 16.5576C12.1967 16.0227 13.5709 18.5212 14.1393 19.541C14.0794 19.5714 14.021 19.604 13.9656 19.6411C13.9453 19.6547 13.9287 19.6704 13.9118 19.6854C13.9004 19.6935 13.8884 19.6997 13.8771 19.7092C13.8424 19.7381 13.8154 19.7711 13.7837 19.8018C13.2675 19.2022 12.7444 18.6084 12.2216 18.0139C12.052 17.8211 11.8843 17.6267 11.7214 17.4282ZM15.3076 21.6779C14.8936 21.9248 14.4191 21.6899 14.2142 21.3095C14.0272 20.9621 14.1885 20.6115 14.448 20.3704C14.8235 20.1399 15.3071 20.1338 15.5753 20.5339C15.8508 20.9448 15.7156 21.4348 15.3076 21.6779ZM16.3804 20.1835C16.3191 20.0438 16.2367 19.9243 16.1409 19.8205C17.2641 18.8266 20.6079 15.8718 21.0191 16.4237C21.5247 17.1024 17.679 19.4003 16.3804 20.1835Z" fill="#B250FE"/>
<path d="M12.1243 12.093C12.2624 12.6378 13.107 12.4066 12.9689 11.8615C12.9255 11.6903 12.8824 11.519 12.8393 11.3477C12.7017 10.8026 11.8573 11.0338 11.9946 11.5793C12.0379 11.7505 12.081 11.9218 12.1243 12.093Z" fill="#B250FE"/>
<path d="M17.5644 30.0552C17.4262 29.5105 16.5818 29.7416 16.72 30.2868C16.7634 30.4584 16.8063 30.6297 16.85 30.8009C16.9886 31.3457 17.8333 31.1145 17.6943 30.5694C17.6509 30.3981 17.6078 30.2265 17.5644 30.0552Z" fill="#B250FE"/>
<path d="M24.1008 19.2069C24.2732 19.164 24.4453 19.121 24.6173 19.0782C25.1651 18.942 24.9328 18.1013 24.3847 18.2378C24.2123 18.2807 24.0402 18.3237 23.8681 18.3666C23.3204 18.5027 23.5527 19.3434 24.1008 19.2069Z" fill="#B250FE"/>
<path d="M5.58753 22.9404C5.41563 22.9833 5.24373 23.0265 5.07197 23.0704C4.52527 23.21 4.7574 24.0507 5.30495 23.9107C5.47652 23.8668 5.64842 23.8239 5.82052 23.7807C6.36794 23.6439 6.13561 22.8032 5.58753 22.9404Z" fill="#B250FE"/>
<path d="M20.0608 13.2443C20.1522 13.0928 20.2431 12.9412 20.3344 12.7901C20.6263 12.3069 19.8689 11.8691 19.5784 12.3501C19.487 12.5014 19.3957 12.6528 19.3047 12.8043C19.0135 13.2879 19.771 13.7257 20.0608 13.2443Z" fill="#B250FE"/>
<path d="M9.62842 28.9029C9.53744 29.0548 9.44594 29.2063 9.35477 29.3582C9.06418 29.8417 9.8214 30.2799 10.1108 29.7982C10.2022 29.6463 10.2937 29.4948 10.3845 29.3429C10.6742 28.8587 9.91678 28.4205 9.62842 28.9029Z" fill="#B250FE"/>
<path d="M23.6102 25.7851C23.4582 25.6939 23.3061 25.6037 23.1535 25.5134C22.667 25.2254 22.2267 25.9792 22.7115 26.266C22.8641 26.3562 23.0163 26.4468 23.1682 26.5377C23.6533 26.8284 24.0932 26.0742 23.6102 25.7851Z" fill="#B250FE"/>
<path d="M6.07866 16.3628C6.23092 16.4538 6.38331 16.5442 6.53577 16.6349C7.02171 16.9239 7.46187 16.1701 6.97776 15.8823C6.82537 15.7918 6.67292 15.7012 6.52072 15.6103C6.03505 15.3206 5.59489 16.0744 6.07866 16.3628Z" fill="#B250FE"/>
<path d="M16.1029 12.2138C16.3119 12.2711 16.6061 12.1447 16.6413 11.9095C16.6677 11.7352 16.6937 11.5605 16.7194 11.3858C16.7543 11.1512 16.6647 10.9183 16.4135 10.8499C16.2049 10.7927 15.9099 10.9186 15.8751 11.1543C15.8491 11.3286 15.8234 11.5033 15.797 11.678C15.7615 11.9125 15.8521 12.1454 16.1029 12.2138Z" fill="#B250FE"/>
<path d="M13.5868 29.9331C13.3782 29.8759 13.0831 30.0019 13.048 30.2375C13.0222 30.4122 12.9962 30.5869 12.97 30.7619C12.9351 30.9965 13.025 31.2294 13.2758 31.2978C13.4847 31.355 13.7796 31.229 13.8146 30.9934C13.8406 30.8188 13.8667 30.6441 13.8927 30.4691C13.9275 30.2344 13.8376 30.0016 13.5868 29.9331Z" fill="#B250FE"/>
<path d="M24.2845 22.022C24.0488 21.9876 23.8152 22.0764 23.746 22.3264C23.6885 22.5337 23.8152 22.8279 24.0519 22.8623C24.2274 22.8882 24.4029 22.914 24.5788 22.9396C24.8145 22.974 25.0481 22.8851 25.1172 22.6352C25.1747 22.4278 25.0481 22.1336 24.8114 22.0993C24.6358 22.0734 24.4603 22.0476 24.2845 22.022Z" fill="#B250FE"/>
<path d="M5.40452 20.1258C5.64039 20.1608 5.87443 20.0709 5.94333 19.8214C6.00068 19.6136 5.8739 19.3205 5.6375 19.2855C5.46199 19.2592 5.28648 19.2341 5.11097 19.2085C4.87489 19.1741 4.64125 19.263 4.57215 19.5129C4.51487 19.7203 4.64145 20.0145 4.87798 20.0488C5.05369 20.0743 5.2292 20.0999 5.40452 20.1258Z" fill="#B250FE"/>
<path d="M22.1884 15.1035C21.9971 15.2448 21.9006 15.4778 22.0313 15.6997C22.1418 15.8877 22.4384 15.9983 22.6303 15.856C22.7726 15.7504 22.9156 15.6456 23.058 15.5401C23.2492 15.3987 23.3457 15.1658 23.215 14.9439C23.1045 14.7559 22.8079 14.6453 22.616 14.7875C22.4737 14.8931 22.3306 14.998 22.1884 15.1035Z" fill="#B250FE"/>
<path d="M7.05881 26.2914C6.91614 26.3966 6.77367 26.5022 6.6312 26.6077C6.44012 26.749 6.3433 26.982 6.47414 27.2039C6.58463 27.3919 6.88126 27.5025 7.0732 27.3602C7.21573 27.2547 7.35814 27.1491 7.50081 27.0439C7.69222 26.9029 7.78851 26.6697 7.65786 26.4477C7.54718 26.2594 7.25087 26.1494 7.05881 26.2914Z" fill="#B250FE"/>
<path d="M20.8432 28.3828C20.7013 28.1925 20.4672 28.0964 20.2441 28.2265C20.055 28.3365 19.9444 28.6313 20.0871 28.8227C20.1928 28.9647 20.2989 29.1067 20.4053 29.2483C20.5476 29.4382 20.7809 29.535 21.0043 29.4046C21.1928 29.2946 21.3043 28.9994 21.1614 28.8084C21.0553 28.6668 20.9492 28.5248 20.8432 28.3828Z" fill="#B250FE"/>
<path d="M9.60208 13.3248C9.496 13.1832 9.39011 13.0412 9.28462 12.8992C9.1432 12.7086 8.90831 12.6128 8.68557 12.7429C8.4962 12.8532 8.38624 13.1477 8.52851 13.3391C8.63387 13.4811 8.73976 13.6231 8.84604 13.7647C8.98831 13.9547 9.22182 14.0514 9.44509 13.9211C9.63374 13.8111 9.74508 13.5159 9.60208 13.3248Z" fill="#B250FE"/>
<path d="M4.64262 13.5058C3.33253 14.5988 2.23538 16.8297 2.48269 18.5437C2.4909 18.6005 2.5776 18.5934 2.5908 18.5437C3.07116 16.7428 3.65379 15.1123 4.69859 13.5487C4.72237 13.5133 4.67172 13.4816 4.64262 13.5058Z" fill="#B250FE"/>
<path d="M4.88362 13.3404C5.01059 13.307 5.08527 13.1967 5.16791 13.1023C5.25684 13.0009 5.39341 12.8964 5.42382 12.7615C5.43117 12.7285 5.4074 12.6845 5.36838 12.689C5.22913 12.705 5.14774 12.8174 5.06235 12.9205C4.97407 13.0272 4.86102 13.1493 4.82969 13.2869C4.8224 13.3189 4.85025 13.3493 4.88362 13.3404Z" fill="#B250FE"/>
<path d="M25.0286 28.4786C24.1675 29.4112 23.3765 30.3421 22.344 31.1007C21.2787 31.8828 19.7892 32.6254 18.5219 32.9813C18.4607 32.9983 18.488 33.0817 18.5473 33.0732C21.138 32.703 23.955 30.9362 25.1295 28.5562C25.1603 28.4939 25.0806 28.4224 25.0286 28.4786Z" fill="#B250FE"/>
<path d="M25.7566 27.4993C25.4867 27.6055 25.3231 27.964 25.2308 28.2201C25.2157 28.262 25.2678 28.2953 25.3033 28.2753C25.5397 28.1408 25.8202 27.8476 25.8432 27.565C25.8466 27.5238 25.7963 27.4837 25.7566 27.4993Z" fill="#B250FE"/>
<path d="M19.3933 9.52631C21.6523 10.3248 23.2246 11.7814 24.6881 13.6252C24.721 13.6664 24.7853 13.6214 24.773 13.5761C24.1319 11.2281 21.6225 9.84194 19.4282 9.40033C19.3447 9.38366 19.3136 9.49807 19.3933 9.52631Z" fill="#B250FE"/>
</svg>
