<svg width="312" height="475" viewBox="0 0 312 475" fill="none" xmlns="http://www.w3.org/2000/svg">
<path d="M0.0774536 418.874C0.945892 369.335 1.23535 319.959 1.52484 270.42C1.95905 221.867 3.26163 174 3.26163 124.598C3.26163 94.4611 -2.92123 48.8522 13 24C31.0923 -4.30844 67 2.735 103.131 1.16031C144.671 -0.650116 238.606 -0.979285 279.712 4.94574C293.752 6.92074 306.634 11.0353 311.12 28.3167C313.002 35.5584 311.41 42.8 310.542 50.0417C304.318 98.4294 307.936 147.475 308.226 196.192C308.66 244.251 306.923 292.309 305.91 340.368C305.62 352.712 305.62 364.891 305.186 377.235C304.752 387.933 303.594 399.289 298.528 408.506C288.686 426.61 268.567 435.497 252.067 443.397C201.119 467.591 81.8546 484.214 27.2882 469.402C18.0249 466.933 9.19598 461.008 4.41962 451.462C-0.501495 441.587 -0.0672913 429.902 0.0774536 418.874Z" fill="white"/>
</svg>
