<svg width="70" height="70" viewBox="0 0 70 70" fill="none" xmlns="http://www.w3.org/2000/svg">
<path d="M17.2156 11.5244H30.305V2.84553C30.305 1.27395 29.0309 0 27.4595 0H20.0611C18.4895 0 17.2156 1.27395 17.2156 2.84553V11.5244Z" fill="#DF75A5"/>
<path d="M17.2156 8.67896H30.305V11.5245H17.2156V8.67896Z" fill="#DD5790"/>
<path d="M61.5094 65.4472H58.4756V41.2603H60.4434C62.5145 41.2603 64.2868 42.7472 64.6467 44.7868L67.1138 58.7672C67.7288 62.2519 65.0481 65.4472 61.5094 65.4472Z" fill="#DD5790"/>
<path d="M8.49076 65.4472H11.5245V41.2603H9.55675C7.4856 41.2603 5.71332 42.7472 5.35347 44.7868L2.88625 58.7671C2.27128 62.2519 4.95207 65.4472 8.49076 65.4472Z" fill="#DD5790"/>
<path d="M56.9747 28.8821H13.0257L8.89061 60.6464C8.8444 61.001 8.82129 61.3581 8.82129 61.7158C8.82129 66.2911 12.5302 70 17.1055 70H52.8948C57.4701 70 61.179 66.2911 61.179 61.7158C61.179 61.3583 61.1559 61.001 61.1096 60.6464L56.9747 28.8821Z" fill="#AC80DD"/>
<path d="M56.5949 61.2347L54.9555 48.5776C54.7718 47.1593 53.5639 46.0977 52.1335 46.0977H17.8666C16.4364 46.0977 15.2283 47.1593 15.0446 48.5776L13.4052 61.2347C13.3846 61.3935 13.374 61.5555 13.374 61.7159C13.374 63.7733 15.0479 65.4472 17.1054 65.4472H52.8946C54.9521 65.4472 56.626 63.7733 56.626 61.7159C56.6261 61.5555 56.6156 61.3935 56.5949 61.2347Z" fill="#A2F4C1"/>
<path d="M56.595 61.2347L54.9556 48.5776C54.7719 47.1593 53.564 46.0977 52.1336 46.0977H47.0117C48.4419 46.0977 49.65 47.1593 49.8337 48.5776L51.4731 61.2347C51.4938 61.3935 51.5043 61.5555 51.5043 61.7159C51.5043 63.7733 49.8305 65.4472 47.773 65.4472H52.8949C54.9523 65.4472 56.6262 63.7733 56.6262 61.7159C56.6262 61.5555 56.6157 61.3935 56.595 61.2347Z" fill="#86F1A7"/>
<path d="M12.1355 35.7206C12.9138 35.9936 13.7417 36.1382 14.5903 36.1382H55.4103C56.2589 36.1382 57.0867 35.9936 57.8651 35.7206L56.9749 28.8821H13.0257L12.1355 35.7206Z" fill="#9D66D5"/>
<path d="M59.5967 27.9081L57.0245 14.961C56.6276 12.9634 54.8747 11.5244 52.838 11.5244H17.1625C15.1258 11.5244 13.3729 12.9634 12.976 14.961L10.4038 27.9081C9.87937 30.5477 11.899 33.0081 14.5903 33.0081H55.4104C58.1016 33.0081 60.1212 30.5477 59.5967 27.9081Z" fill="#FFE07D"/>
<path d="M59.5966 27.9081L57.0244 14.961C56.6275 12.9634 54.8746 11.5244 52.8379 11.5244H49.3469C51.3836 11.5244 53.1365 12.9634 53.5334 14.961L56.1056 27.9081C56.6301 30.5477 54.6105 33.0081 51.9191 33.0081H55.4101C58.1014 33.0081 60.121 30.5477 59.5966 27.9081Z" fill="#FFD064"/>
<path d="M52.7845 11.5244H39.6951V2.84553C39.6951 1.27395 40.9691 0 42.5406 0H49.939C51.5106 0 52.7845 1.27395 52.7845 2.84553V11.5244Z" fill="#DF75A5"/>
<path d="M39.6951 8.67896H52.7845V11.5245H39.6951V8.67896Z" fill="#DD5790"/>
<path d="M42.114 26.8191H27.8862C27.1005 26.8191 26.4634 26.1821 26.4634 25.3964V19.1362C26.4634 18.3505 27.1004 17.7134 27.8862 17.7134H42.1138C42.8996 17.7134 43.5367 18.3504 43.5367 19.1362V25.3964C43.5367 26.182 42.8997 26.8191 42.114 26.8191Z" fill="#E4FBEF"/>
<path d="M44.6749 55.1212C44.0916 55.1212 43.6187 54.6483 43.6187 54.0649V51.2194C43.6187 50.6359 44.0916 50.1631 44.6749 50.1631C45.2583 50.1631 45.7312 50.636 45.7312 51.2194V54.0649C45.7312 54.6483 45.2583 55.1212 44.6749 55.1212Z" fill="#DD5790"/>
<path d="M47.8048 52.2757H22.1952C21.6118 52.2757 21.1389 51.8028 21.1389 51.2194C21.1389 50.6359 21.6118 50.1631 22.1952 50.1631H47.805C48.3883 50.1631 48.8612 50.636 48.8612 51.2194C48.8612 51.8028 48.3883 52.2757 47.8048 52.2757Z" fill="#DF75A5"/>
</svg>
