<svg width="70" height="70" viewBox="0 0 70 70" fill="none" xmlns="http://www.w3.org/2000/svg">
<g clip-path="url(#clip0_237_16172)">
<path d="M36.9277 69.0298C35.6864 68.569 34.3139 68.569 33.0726 69.0298C30.686 69.9158 27.9921 69.9999 27.9921 69.9999C4.72534 69.9999 4.72534 35.5203 4.72534 35.5203C4.72534 24.683 13.5106 15.8977 24.3479 15.8977C27.7303 15.8977 30.8951 16.7229 33.6576 18.195C34.4989 18.6433 35.5014 18.6433 36.3428 18.195C39.1053 16.7229 42.2701 15.8977 45.6525 15.8977C56.4898 15.8977 65.2751 24.683 65.2751 35.5203C65.2751 35.5203 65.2751 69.9999 42.0083 69.9999C42.0081 69.9999 39.3142 69.9157 36.9277 69.0298Z" fill="#DF75A5"/>
<path d="M52.9191 17.2883C54.8237 21.527 55.884 26.2273 55.884 31.1755C55.884 49.9085 40.6979 65.0945 21.965 65.0945C19.2633 65.0945 16.6361 64.7769 14.1169 64.1801C17.4333 67.651 21.9199 70.0001 27.992 70.0001C27.992 70.0001 30.6859 69.9159 33.0725 69.0298C34.3137 68.5691 35.6862 68.5691 36.9275 69.0298C39.3141 69.9159 42.008 70.0001 42.008 70.0001C65.2748 70.0001 65.2748 35.5205 65.2748 35.5205C65.2749 27.2506 60.1588 20.1764 52.9191 17.2883Z" fill="#DD5790"/>
<path d="M35 26.469C34.9998 26.469 34.9996 26.469 34.9994 26.469C34.4249 26.4686 33.9595 26.0032 33.9595 25.4287C33.9595 25.2626 33.9759 21.303 35.3995 16.2132C37.294 9.44016 40.8129 3.90921 45.5755 0.21821C46.03 -0.133978 46.6835 -0.0509896 47.0355 0.40319C47.3876 0.857506 47.3047 1.51116 46.8504 1.86321C41.3009 6.16424 38.659 12.3139 37.4202 16.7155C36.0619 21.5414 36.0407 25.3913 36.0407 25.4294C36.0399 26.0036 35.5741 26.469 35 26.469Z" fill="#EFCB84"/>
<path d="M35 26.4695C30.6057 26.4695 28.6424 23.9191 28.5609 23.8106C28.2161 23.3508 28.3094 22.6985 28.769 22.3537C29.2289 22.0091 29.881 22.102 30.2259 22.5618C30.2781 22.6283 31.6952 24.3882 34.9998 24.3882C38.3045 24.3882 39.7216 22.6283 39.7802 22.5533C40.125 22.0934 40.7739 22.0045 41.2339 22.3495C41.6937 22.6941 41.7837 23.3508 41.4389 23.8106C41.3575 23.9191 39.3943 26.4695 35 26.4695Z" fill="#DD5790"/>
<path d="M36.8679 18.7986C36.9135 19.6256 36.2321 20.307 35.4051 20.2615C32.9806 20.1278 28.047 19.3693 24.2928 15.6151C20.5387 11.861 19.7802 6.92732 19.6464 4.50289C19.6009 3.67588 20.2823 2.99447 21.1093 3.04C23.5338 3.17371 28.4674 3.93223 32.2216 7.68639C35.9757 11.4405 36.7342 16.3742 36.8679 18.7986Z" fill="#A2F4C1"/>
<path d="M32.2216 7.6864C31.2666 6.73142 30.2353 5.97085 29.1885 5.3645C29.6158 7.02646 29.8522 8.84714 29.8522 10.7564C29.8522 13.619 29.3218 16.2827 28.4104 18.51C31.1288 19.8151 33.8116 20.1736 35.4068 20.2614C36.233 20.3069 36.9133 19.6247 36.8678 18.7985C36.7342 16.3742 35.9757 11.4406 32.2216 7.6864Z" fill="#86F1A7"/>
</g>
<defs>
<clipPath id="clip0_237_16172">
<rect width="70" height="70" fill="white"/>
</clipPath>
</defs>
</svg>
