<svg width="70" height="70" viewBox="0 0 70 70" fill="none" xmlns="http://www.w3.org/2000/svg">
<path d="M60.6097 70H9.39021C7.81862 70 6.54468 68.7261 6.54468 67.1545V61.4634C6.54468 59.8919 7.81862 58.6179 9.39021 58.6179H60.6097C62.1813 58.6179 63.4552 59.8919 63.4552 61.4634V67.1545C63.4552 68.7261 62.1813 70 60.6097 70Z" fill="#F1D59D"/>
<path d="M60.6097 58.6179H53.9226C55.4942 58.6179 56.7681 59.8919 56.7681 61.4634V67.1545C56.7681 68.7261 55.4942 70 53.9226 70H60.6097C62.1812 70 63.4552 68.7261 63.4552 67.1545V61.4634C63.4552 59.8919 62.1812 58.6179 60.6097 58.6179Z" fill="#EFCB84"/>
<path d="M54.0649 58.6178H15.9349C13.1062 58.6178 10.813 56.3246 10.813 53.4959C10.813 50.6672 13.1062 48.374 15.9349 48.374H54.0651C56.8938 48.374 59.187 50.6672 59.187 53.4959C59.187 56.3246 56.8938 58.6178 54.0649 58.6178Z" fill="#A2F4C1"/>
<path d="M51.2193 48.3739H18.7803C15.9516 48.3739 13.6584 46.0807 13.6584 43.252C13.6584 40.4233 15.9516 38.1301 18.7803 38.1301H51.2193C54.048 38.1301 56.3412 40.4233 56.3412 43.252C56.3414 46.0807 54.0482 48.3739 51.2193 48.3739Z" fill="#DF75A5"/>
<path d="M48.374 38.13H21.626C18.7973 38.13 16.5042 35.8368 16.5042 33.0081C16.5042 30.1794 18.7973 27.8862 21.626 27.8862H48.374C51.2027 27.8862 53.4959 30.1794 53.4959 33.0081C53.496 35.8368 51.2028 38.13 48.374 38.13Z" fill="#AC80DD"/>
<path d="M45.5284 27.8861H24.4715C21.6428 27.8861 19.3496 25.5929 19.3496 22.7642C19.3496 19.9355 21.6428 17.6423 24.4715 17.6423H45.5284C48.3571 17.6423 50.6503 19.9355 50.6503 22.7642C50.6504 25.5929 48.3572 27.8861 45.5284 27.8861Z" fill="#FFE07D"/>
<path d="M55.1564 48.4917C55.2329 48.8436 55.2742 49.2085 55.2742 49.5833C55.2742 52.412 52.981 54.7052 50.1523 54.7052H12.0222C11.6475 54.7052 11.2824 54.6639 10.9307 54.5874C11.4311 56.8916 13.4809 58.6178 15.9348 58.6178H54.0649C56.8937 58.6178 59.1868 56.3246 59.1868 53.4959C59.1869 51.0419 57.4607 48.9921 55.1564 48.4917Z" fill="#86F1A7"/>
<path d="M52.3111 38.2478C52.3875 38.5997 52.4288 38.9646 52.4288 39.3394C52.4288 42.1681 50.1356 44.4613 47.3069 44.4613H14.8679C14.4932 44.4613 14.1281 44.42 13.7764 44.3435C14.2768 46.6477 16.3266 48.3739 18.7805 48.3739H51.2195C54.0484 48.3739 56.3414 46.0807 56.3414 43.252C56.3416 40.798 54.6152 38.7482 52.3111 38.2478Z" fill="#DD5790"/>
<path d="M49.4655 28.0039C49.5419 28.3558 49.5832 28.7207 49.5832 29.0955C49.5832 31.9242 47.29 34.2174 44.4613 34.2174H17.7134C17.3386 34.2174 16.9736 34.1761 16.6218 34.0996C17.1222 36.4038 19.172 38.13 21.626 38.13H48.3739C51.2028 38.13 53.4958 35.8368 53.4958 33.0081C53.496 30.554 51.7696 28.5042 49.4655 28.0039Z" fill="#9D66D5"/>
<path d="M46.6199 17.76C46.6963 18.1119 46.7376 18.4768 46.7376 18.8516C46.7376 21.6803 44.4444 23.9735 41.6157 23.9735H20.5588C20.1841 23.9735 19.8191 23.9322 19.4673 23.8558C19.9677 26.1599 22.0175 27.8861 24.4715 27.8861H45.5283C48.3572 27.8861 50.6502 25.5929 50.6502 22.7642C50.6504 20.3102 48.924 18.2603 46.6199 17.76Z" fill="#FFD064"/>
<path d="M30.7317 17.6422V4.26836C30.7317 1.91105 32.6427 0 35 0C37.3574 0 39.2683 1.91092 39.2683 4.26822V17.6422H30.7317Z" fill="#F1D59D"/>
<path d="M35 0C34.501 0 34.0224 0.0864063 33.5774 0.243906C35.2349 0.83002 36.4229 2.41008 36.4229 4.26836V11.8089C36.4229 13.3805 35.1489 14.6545 33.5774 14.6545H30.7317V17.6423H39.2683V4.26836C39.2683 1.91105 37.3574 0 35 0Z" fill="#EFCB84"/>
</svg>
