<svg width="70" height="70" viewBox="0 0 70 70" fill="none" xmlns="http://www.w3.org/2000/svg">
<g clip-path="url(#clip0_237_16123)">
<path d="M34.9998 69.9999C34.425 69.9999 33.9592 69.5341 33.9592 68.9592V50.3179C33.9592 49.7431 34.425 49.2773 34.9998 49.2773C35.5746 49.2773 36.0405 49.7431 36.0405 50.3179V68.9594C36.0405 69.5341 35.5746 69.9999 34.9998 69.9999Z" fill="#FFE07D"/>
<path d="M51.2587 69.9999C50.684 69.9999 50.218 69.5341 50.218 68.9592V54.6955C50.218 54.1207 50.6838 53.6548 51.2587 53.6548C51.8336 53.6548 52.2993 54.1206 52.2993 54.6955V68.9592C52.2993 69.5341 51.8335 69.9999 51.2587 69.9999Z" fill="#FFE07D"/>
<path d="M18.7412 69.9999C18.1665 69.9999 17.7007 69.5341 17.7007 68.9592V54.6955C17.7007 54.1207 18.1665 53.6548 18.7412 53.6548C19.316 53.6548 19.7818 54.1206 19.7818 54.6955V68.9592C19.782 69.5341 19.316 69.9999 18.7412 69.9999Z" fill="#FFE07D"/>
<path d="M54.4823 53.8548C54.4823 55.6351 53.039 54.6957 51.2586 54.6957C49.4782 54.6957 48.0349 55.6351 48.0349 53.8548C48.0349 52.0744 49.4782 50.6311 51.2586 50.6311C53.039 50.6311 54.4823 52.0743 54.4823 53.8548Z" fill="#86F1A7"/>
<path d="M69.4796 22.5987C69.4796 32.6619 61.3217 50.631 51.2587 50.631C41.1956 50.631 33.0376 32.6619 33.0376 22.5987C33.0376 12.5356 41.1955 4.37769 51.2587 4.37769C61.3218 4.37769 69.4796 12.5356 69.4796 22.5987Z" fill="#A2F4C1"/>
<path d="M33.0376 22.5987C33.0376 29.7461 37.1535 40.8798 43.1438 46.7327C45.9216 44.7104 48.5222 41.6602 50.8021 37.6842C54.3149 31.5583 56.5847 23.9186 56.5847 18.221C56.5847 12.9587 54.6908 8.13103 51.5501 4.38138C51.4531 4.37987 51.356 4.37769 51.2585 4.37769C41.1955 4.37769 33.0376 12.5356 33.0376 22.5987Z" fill="#86F1A7"/>
<path d="M15.5176 53.8548C15.5176 55.6351 16.9609 54.6957 18.7413 54.6957C20.5216 54.6957 21.965 55.6351 21.965 53.8548C21.965 52.0744 20.5216 50.6311 18.7413 50.6311C16.9609 50.6311 15.5176 52.0743 15.5176 53.8548Z" fill="#DD5790"/>
<path d="M0.520264 22.5987C0.520264 32.6619 8.67813 50.631 18.7412 50.631C28.8042 50.631 36.9621 32.6619 36.9621 22.5987C36.9621 12.5356 28.8044 4.37769 18.7412 4.37769C8.678 4.37769 0.520264 12.5356 0.520264 22.5987Z" fill="#DF75A5"/>
<path d="M36.9624 22.5987C36.9624 29.7461 32.8464 40.8798 26.8561 46.7327C24.0784 44.7104 21.4777 41.6602 19.1978 37.6842C15.6851 31.5583 13.4153 23.9186 13.4153 18.221C13.4153 12.9587 15.3091 8.13103 18.4498 4.38138C18.5469 4.37987 18.644 4.37769 18.7414 4.37769C28.8045 4.37769 36.9624 12.5356 36.9624 22.5987Z" fill="#DD5790"/>
<path d="M38.2238 49.4769C38.2238 51.2572 36.7804 50.3178 35.0001 50.3178C33.2197 50.3178 31.7764 51.2572 31.7764 49.4769C31.7764 47.6965 33.2197 46.2532 35.0001 46.2532C36.7804 46.2532 38.2238 47.6965 38.2238 49.4769Z" fill="#9D66D5"/>
<path d="M53.2209 18.2209C53.2209 28.2841 45.063 46.2532 35 46.2532C24.9369 46.2532 16.7791 28.2841 16.7791 18.2209C16.7791 8.15773 24.9368 0 35 0C45.0632 0 53.2209 8.15787 53.2209 18.2209Z" fill="#AC80DD"/>
<path d="M45.1126 3.06274C47.0467 5.95612 48.1751 9.43384 48.1751 13.1753C48.1751 23.2385 40.0172 41.2076 29.9541 41.2076C27.9597 41.2076 26.0407 40.4998 24.2446 39.2895C27.2591 43.3801 30.9769 46.2534 35 46.2534C45.0632 46.2534 53.2209 28.2843 53.2209 18.2212C53.2208 11.8994 50.0011 6.33046 45.1126 3.06274Z" fill="#9D66D5"/>
</g>
<defs>
<clipPath id="clip0_237_16123">
<rect width="70" height="70" fill="white"/>
</clipPath>
</defs>
</svg>
