<svg width="27" height="27" viewBox="0 0 27 27" fill="none" xmlns="http://www.w3.org/2000/svg">
<path d="M24.2493 10.0525C25.0991 8.6464 23.3938 6.60648 21.8171 7.61969C21.8043 7.62822 21.7916 7.63603 21.7788 7.64456C21.8683 7.5593 21.9543 7.47119 22.0438 7.38664C23.5018 6.00751 21.6139 3.52848 19.8909 4.59711C18.8116 5.26643 17.7465 5.95848 16.6886 6.66048C17.5611 5.81425 18.4421 4.97724 19.3424 4.16085C20.8807 2.76538 18.9203 0.44835 17.1895 1.37132C16.7759 1.59159 16.3745 1.83175 15.9681 2.06338C16.2274 0.752456 14.7843 -0.481728 13.3285 0.188298C9.41063 1.99161 5.81395 4.39461 2.60237 7.27011C1.20974 8.51709 2.63008 10.4121 4.12361 10.243C3.05 11.529 2.00695 12.8406 1.01718 14.1956C0.0146317 15.5676 1.67513 17.1436 3.04929 16.7912C2.73879 17.2026 2.42474 17.6111 2.11992 18.0275C1.60337 18.7323 1.93234 19.8372 2.5775 20.3189C3.31005 20.866 4.23161 20.7822 4.91016 20.1804C5.102 20.0098 5.29811 19.8443 5.49137 19.6752C5.17163 20.0496 4.84195 20.4156 4.52505 20.7921C3.90832 21.5261 3.80529 22.5848 4.52505 23.3046C5.10129 23.8801 6.05197 23.9767 6.73053 23.5497C6.82147 23.9895 7.06661 24.4037 7.40055 24.6531C8.08621 25.1654 8.83297 25.0951 9.49874 24.6759C9.44616 25.9733 10.8963 27.3133 12.1355 26.374C12.8645 25.8212 13.5935 25.2692 14.3225 24.7164C14.8121 25.645 16.0882 26.1595 17.1255 25.2187C18.7441 23.7501 20.4678 22.4363 22.3102 21.2611C23.2531 20.6593 23.3021 19.6141 22.8815 18.8489L24.6699 16.87C25.2611 16.2164 25.3747 15.2486 24.8084 14.5381C24.7019 14.4045 24.5647 14.2859 24.4148 14.1814C24.8077 13.819 25.2007 13.456 25.5936 13.0929C26.8384 11.9397 25.6732 10.0007 24.2493 10.0525Z" fill="white" fill-opacity="0.15"/>
</svg>
