<svg width="30" height="30" viewBox="0 0 30 30" fill="none" xmlns="http://www.w3.org/2000/svg">
<path d="M26.9437 11.1695C27.8879 9.60711 25.9932 7.34054 24.2414 8.46632C24.2271 8.4758 24.2129 8.48448 24.1987 8.49396C24.2982 8.39922 24.3937 8.30132 24.4932 8.20738C26.1132 6.67501 24.0156 3.92054 22.1011 5.1079C20.9019 5.85159 19.7185 6.62054 18.5429 7.40054C19.5124 6.46027 20.4914 5.53027 21.4916 4.62317C23.2008 3.07264 21.0227 0.498167 19.0995 1.52369C18.64 1.76843 18.194 2.03527 17.7424 2.29264C18.0306 0.836062 16.4271 -0.535254 14.8095 0.20922C10.4564 2.2129 6.46004 4.8829 2.89162 8.0779C1.34425 9.46343 2.9224 11.569 4.58188 11.3811C3.38898 12.81 2.23004 14.2674 1.1303 15.7729C0.0163524 17.2974 1.86135 19.0484 3.38819 18.6569C3.04319 19.114 2.69425 19.5679 2.35556 20.0305C1.78162 20.8137 2.14714 22.0413 2.86398 22.5766C3.67793 23.1845 4.70188 23.0913 5.45583 22.4226C5.66898 22.2332 5.88688 22.0492 6.10162 21.8613C5.74635 22.2774 5.38004 22.684 5.02793 23.1024C4.34267 23.9179 4.22819 25.0942 5.02793 25.894C5.66819 26.5334 6.72451 26.6408 7.47846 26.1663C7.57951 26.655 7.85188 27.1153 8.22293 27.3924C8.98477 27.9616 9.81451 27.8834 10.5542 27.4176C10.4958 28.8592 12.1071 30.3482 13.484 29.3045C14.294 28.6903 15.104 28.0769 15.914 27.4626C16.4579 28.4945 17.8758 29.0661 19.0285 28.0208C20.8269 26.389 22.7421 24.9292 24.7892 23.6234C25.8369 22.9547 25.8914 21.7934 25.424 20.9432L27.4111 18.7445C28.0679 18.0182 28.1942 16.9429 27.565 16.1534C27.4466 16.005 27.2942 15.8732 27.1277 15.7571C27.5642 15.3545 28.0008 14.9511 28.4374 14.5476C29.8206 13.2663 28.5258 11.1119 26.9437 11.1695Z" fill="white" fill-opacity="0.2"/>
</svg>
