<svg width="29" height="30" viewBox="0 0 29 30" fill="none" xmlns="http://www.w3.org/2000/svg">
<path d="M26.2898 11.171C27.234 9.60862 25.3393 7.34204 23.5874 8.46783C23.5732 8.47731 23.559 8.48599 23.5448 8.49546C23.6443 8.40152 23.7398 8.30283 23.8393 8.20889C25.4593 6.67652 23.3616 3.92204 21.4472 5.10941C20.248 5.8531 19.0645 6.62125 17.889 7.40125C18.8585 6.46099 19.8374 5.53099 20.8377 4.62389C22.5469 3.07257 20.3688 0.498885 18.4456 1.52362C17.9861 1.76836 17.5401 2.0352 17.0885 2.29257C17.3766 0.83678 15.7732 -0.535326 14.1556 0.209148C9.80244 2.21283 5.80612 4.88283 2.2377 8.07783C0.690332 9.46336 2.26849 11.5689 3.92796 11.381C2.73507 12.8107 1.57612 14.2673 0.476384 15.7728C-0.637563 17.2973 1.20744 19.0484 2.73428 18.6568C2.38928 19.1139 2.04033 19.5678 1.70165 20.0305C1.1277 20.8136 1.49323 22.0413 2.21007 22.5765C3.02402 23.1844 4.04796 23.0913 4.80191 22.4218C5.01507 22.2323 5.23296 22.0484 5.4477 21.8605C5.09244 22.2765 4.72612 22.6831 4.37402 23.1015C3.68875 23.917 3.57428 25.0934 4.37402 25.8931C5.01428 26.5334 6.0706 26.6399 6.82454 26.1655C6.9256 26.6542 7.19796 27.1144 7.56902 27.3915C8.33086 27.9607 9.1606 27.8826 9.90033 27.416C9.84191 28.8576 11.4532 30.3465 12.8301 29.3028C13.6401 28.6886 14.4501 28.0752 15.2601 27.461C15.804 28.4928 17.2219 29.0644 18.3745 28.0192C20.173 26.3873 22.0882 24.9276 24.1353 23.6218C25.183 22.9531 25.2374 21.791 24.7701 20.9415L26.7572 18.7428C27.414 18.0165 27.5403 16.9413 26.9111 16.151C26.7927 16.0026 26.6403 15.8707 26.4738 15.7547C26.9103 15.3513 27.3469 14.9486 27.7835 14.5452C29.1666 13.2678 27.8719 11.1134 26.2898 11.171Z" fill="#2C4073"/>
</svg>
