<svg width="29" height="30" viewBox="0 0 29 30" fill="none" xmlns="http://www.w3.org/2000/svg">
<path d="M26.1542 11.1695C27.0984 9.60711 25.2036 7.34054 23.4518 8.46632C23.4376 8.4758 23.4234 8.48448 23.4092 8.49396C23.5086 8.39922 23.6042 8.30132 23.7036 8.20738C25.3236 6.67501 23.226 3.92054 21.3115 5.1079C20.1123 5.85159 18.9289 6.62054 17.7534 7.40054C18.7229 6.46027 19.7018 5.53027 20.7021 4.62317C22.4113 3.07264 20.2331 0.498167 18.31 1.52369C17.8505 1.76843 17.4044 2.03527 16.9529 2.29264C17.241 0.836062 15.6376 -0.535254 14.02 0.20922C9.6668 2.2129 5.67049 4.8829 2.10207 8.0779C0.554696 9.46343 2.13285 11.569 3.79233 11.3811C2.59943 12.81 1.44049 14.2674 0.340749 15.7729C-0.773198 17.2974 1.0718 19.0484 2.59864 18.6569C2.25364 19.114 1.9047 19.5679 1.56601 20.0305C0.992065 20.8137 1.35759 22.0413 2.07443 22.5766C2.88838 23.1845 3.91233 23.0913 4.66628 22.4226C4.87943 22.2332 5.09733 22.0492 5.31207 21.8613C4.9568 22.2774 4.59049 22.684 4.23838 23.1024C3.55312 23.9179 3.43864 25.0942 4.23838 25.894C4.87864 26.5334 5.93496 26.6408 6.68891 26.1663C6.78996 26.655 7.06233 27.1153 7.43338 27.3924C8.19522 27.9616 9.02496 27.8834 9.7647 27.4176C9.70628 28.8592 11.3176 30.3482 12.6944 29.3045C13.5044 28.6903 14.3144 28.0769 15.1244 27.4626C15.6684 28.4945 17.0863 29.0661 18.2389 28.0208C20.0373 26.389 21.9526 24.9292 23.9997 23.6234C25.0473 22.9547 25.1018 21.7934 24.6344 20.9432L26.6215 18.7445C27.2784 18.0182 27.4047 16.9429 26.7755 16.1534C26.6571 16.005 26.5047 15.8732 26.3381 15.7571C26.7747 15.3545 27.2113 14.9511 27.6479 14.5476C29.031 13.2663 27.7363 11.1119 26.1542 11.1695Z" fill="#FF6666" fill-opacity="0.15"/>
</svg>
