<svg width="30" height="30" viewBox="0 0 30 30" fill="none" xmlns="http://www.w3.org/2000/svg">
<path d="M26.9436 11.1695C27.8879 9.60711 25.9931 7.34053 24.2413 8.46632C24.2271 8.4758 24.2129 8.48448 24.1986 8.49396C24.2981 8.39922 24.3936 8.30132 24.4931 8.20738C26.1131 6.67501 24.0155 3.92054 22.101 5.1079C20.9018 5.85159 19.7184 6.62054 18.5429 7.40054C19.5123 6.46027 20.4913 5.53027 21.4915 4.62317C23.2007 3.07264 21.0226 0.498167 19.0994 1.52369C18.64 1.76843 18.1939 2.03527 17.7423 2.29264C18.0305 0.836062 16.4271 -0.535254 14.8094 0.20922C10.4563 2.2129 6.45996 4.8829 2.89154 8.0779C1.34417 9.46343 2.92233 11.569 4.5818 11.3811C3.38891 12.81 2.22996 14.2674 1.13022 15.7729C0.0162762 17.2974 1.86128 19.0484 3.38812 18.6569C3.04312 19.114 2.69417 19.5679 2.35549 20.0305C1.78154 20.8137 2.14707 22.0413 2.86391 22.5766C3.67786 23.1845 4.7018 23.0913 5.45575 22.4226C5.66891 22.2332 5.8868 22.0492 6.10154 21.8613C5.74628 22.2774 5.37996 22.684 5.02785 23.1024C4.34259 23.9179 4.22812 25.0942 5.02785 25.894C5.66812 26.5334 6.72443 26.6408 7.47838 26.1663C7.57943 26.655 7.8518 27.1153 8.22286 27.3924C8.9847 27.9616 9.81443 27.8834 10.5542 27.4176C10.4958 28.8592 12.1071 30.3482 13.4839 29.3045C14.2939 28.6903 15.1039 28.0768 15.9139 27.4626C16.4579 28.4945 17.8757 29.0661 19.0284 28.0208C20.8268 26.389 22.7421 24.9292 24.7892 23.6234C25.8368 22.9547 25.8913 21.7934 25.4239 20.9432L27.411 18.7445C28.0679 18.0182 28.1942 16.9429 27.565 16.1534C27.4465 16.005 27.2942 15.8732 27.1276 15.7571C27.5642 15.3545 28.0007 14.9511 28.4373 14.5476C29.8205 13.2663 28.5258 11.1119 26.9436 11.1695Z" fill="white" fill-opacity="0.15"/>
</svg>
