<svg width="38" height="40" viewBox="0 0 38 40" fill="none" xmlns="http://www.w3.org/2000/svg">
<path d="M34.925 14.8947C36.1839 12.8115 33.6576 9.78939 31.3218 11.2904C31.3029 11.3031 31.2839 11.3147 31.265 11.3273C31.3976 11.202 31.525 11.0704 31.6576 10.9452C33.8176 8.90202 31.0208 5.22939 28.4681 6.81255C26.8692 7.80413 25.2913 8.82834 23.7239 9.86834C25.0165 8.61465 26.3218 7.37465 27.6555 6.16518C29.9344 4.09676 27.0302 0.66518 24.466 2.0315C23.8534 2.35781 23.2586 2.7136 22.6565 3.05676C23.0408 1.11571 20.9029 -0.713768 18.746 0.278864C12.9418 2.95044 7.61338 6.51044 2.85549 10.7704C0.79233 12.6178 2.89654 15.4252 5.10917 15.1747C3.51865 17.081 1.97338 19.0231 0.507066 21.0304C-0.978197 23.0631 1.4818 25.3978 3.51759 24.8757C3.05759 25.4852 2.59233 26.0904 2.14075 26.7073C1.37549 27.7515 1.86286 29.3883 2.81865 30.102C3.90391 30.9125 5.26917 30.7883 6.27443 29.8957C6.55865 29.6431 6.84917 29.3978 7.13549 29.1473C6.6618 29.702 6.17338 30.2441 5.70391 30.802C4.79022 31.8894 4.63759 33.4578 5.70391 34.5241C6.55759 35.3778 7.96601 35.5199 8.97128 34.8873C9.10601 35.5389 9.46917 36.1525 9.96391 36.522C10.9797 37.281 12.086 37.1768 13.0723 36.5547C12.9944 38.4768 15.1429 40.462 16.9786 39.0704C18.0586 38.2515 19.1386 37.4336 20.2186 36.6147C20.9439 37.9904 22.8344 38.7525 24.3713 37.3589C26.7692 35.1831 29.3229 33.2368 32.0523 31.4957C33.4492 30.6041 33.5218 29.0547 32.8986 27.922L35.5481 24.9904C36.4239 24.022 36.5923 22.5883 35.7534 21.5347C35.5955 21.3368 35.3923 21.161 35.1702 21.0062C35.7523 20.4683 36.3344 19.9315 36.9165 19.3936C38.7607 17.6904 37.0344 14.8178 34.925 14.8947Z" fill="#FF6666"/>
</svg>
