<svg width="38" height="40" viewBox="0 0 38 40" fill="none" xmlns="http://www.w3.org/2000/svg">
<path d="M34.925 14.8926C36.1839 12.8095 33.6576 9.78738 31.3218 11.2884C31.3029 11.3011 31.2839 11.3126 31.265 11.3253C31.3976 11.199 31.525 11.0684 31.6576 10.9432C33.8176 8.90001 31.0208 5.22738 28.4681 6.81054C26.8692 7.80212 25.2913 8.82738 23.7239 9.86738C25.0165 8.6137 26.3218 7.3737 27.6555 6.16422C29.9344 4.09685 27.0302 0.664223 24.466 2.03159C23.8534 2.35791 23.2586 2.7137 22.6565 3.05685C23.0408 1.11475 20.9029 -0.713672 18.746 0.27896C12.9418 2.95054 7.61338 6.51054 2.85549 10.7705C0.79233 12.6179 2.89654 15.4253 5.10917 15.1747C3.51865 17.08 1.97338 19.0232 0.507066 21.0305C-0.978197 23.0632 1.4818 25.3979 3.51759 24.8758C3.05759 25.4853 2.59233 26.0905 2.14075 26.7074C1.37549 27.7516 1.86286 29.3884 2.81865 30.1021C3.90391 30.9126 5.26917 30.7884 6.27443 29.8969C6.55865 29.6442 6.84917 29.399 7.13549 29.1484C6.6618 29.7032 6.17338 30.2453 5.70391 30.8032C4.79022 31.8905 4.63759 33.459 5.70391 34.5253C6.55759 35.3779 7.96601 35.5211 8.97128 34.8884C9.10601 35.54 9.46917 36.1537 9.96391 36.5232C10.9797 37.2821 12.086 37.1779 13.0723 36.5569C12.9944 38.479 15.1429 40.4642 16.9786 39.0726C18.0586 38.2537 19.1386 37.4358 20.2186 36.6169C20.9439 37.9926 22.8344 38.7547 24.3713 37.3611C26.7692 35.1853 29.3229 33.239 32.0523 31.4979C33.4492 30.6063 33.5218 29.0579 32.8986 27.9242L35.5481 24.9926C36.4239 24.0242 36.5923 22.5905 35.7534 21.5379C35.5955 21.34 35.3923 21.1642 35.1702 21.0095C35.7523 20.4726 36.3344 19.9347 36.9165 19.3969C38.7607 17.6884 37.0344 14.8158 34.925 14.8926Z" fill="#2C4073" fill-opacity="0.15"/>
</svg>
