<svg width="292" height="180" viewBox="0 0 292 180" fill="none" xmlns="http://www.w3.org/2000/svg">
<path d="M291.81 50.4413C291.112 41.0064 289.218 29.7368 281.743 21.3502C263.502 0.711262 211.671 0.907831 180.075 0.187106C133.028 -0.861221 86.0819 2.67688 39.4343 6.2805C43.0226 5.9529 46.6108 5.6253 50.1991 5.29769C39.4343 5.29769 25.5796 8.04957 15.7118 10.8014C4.95933 13.8 -1.88711 17.4 0.461633 31.2438C7.59305 55.2 19.6988 77.1736 29.1678 100.171C37.2415 119.958 40.132 143.48 53.588 161.957C59.4688 170.082 71.1308 176.241 84.2878 178.665C95.85 180.762 109.107 179.779 120.968 179.713C131.234 179.648 141.501 179.582 151.668 179.517C161.934 179.451 172.2 179.386 182.367 179.32C196.621 179.255 210.974 179.058 223.533 174.013C272.373 154.619 294.301 85.0361 291.81 50.4413Z" fill="#FF6666"/>
</svg>
