<svg width="292" height="140" viewBox="0 0 292 140" fill="none" xmlns="http://www.w3.org/2000/svg">
<path d="M291.81 39.2321C291.112 31.8938 289.218 23.1286 281.743 16.6057C263.502 0.553204 211.671 0.706091 180.075 0.145527C133.028 -0.669839 86.0819 2.08201 39.4343 4.88483C43.0226 4.63003 46.6108 4.37523 50.1991 4.12043C39.4343 4.12043 25.5796 6.26078 15.7118 8.40111C4.95933 10.7333 -1.88711 13.5333 0.461633 24.3007C7.59305 42.9333 19.6988 60.0239 29.1678 77.911C37.2415 93.301 40.132 111.596 53.588 125.967C59.4688 132.286 71.1308 137.076 84.2878 138.962C95.85 140.592 109.107 139.828 120.968 139.777C131.234 139.726 141.501 139.675 151.668 139.624C161.934 139.573 172.2 139.522 182.367 139.471C196.621 139.42 210.974 139.267 223.533 135.343C272.373 120.259 294.301 66.1392 291.81 39.2321Z" fill="#FCF9F4"/>
</svg>
